<?xml version="1.0" encoding="UTF-8" standalone="no"?>
<svg width="470px" height="338px" viewBox="0 0 470 338" version="1.1" xmlns="http://www.w3.org/2000/svg" xmlns:xlink="http://www.w3.org/1999/xlink">
    <!-- Generator: Sketch 42 (36781) - http://www.bohemiancoding.com/sketch -->
    <title>img-search-business</title>
    <desc>Created with Sketch.</desc>
    <defs>
        <rect id="path-1" x="0" y="0" width="420" height="160" rx="3"></rect>
        <mask id="mask-2" maskContentUnits="userSpaceOnUse" maskUnits="objectBoundingBox" x="0" y="0" width="420" height="160" fill="white">
            <use xlink:href="#path-1"></use>
        </mask>
        <rect id="path-3" x="0" y="0" width="470" height="160" rx="3"></rect>
        <filter x="-50%" y="-50%" width="200%" height="200%" filterUnits="objectBoundingBox" id="filter-4">
            <feOffset dx="0" dy="0" in="SourceAlpha" result="shadowOffsetOuter1"></feOffset>
            <feGaussianBlur stdDeviation="15" in="shadowOffsetOuter1" result="shadowBlurOuter1"></feGaussianBlur>
            <feComposite in="shadowBlurOuter1" in2="SourceAlpha" operator="out" result="shadowBlurOuter1"></feComposite>
            <feColorMatrix values="0 0 0 0 0.28627451   0 0 0 0 0.31372549   0 0 0 0 0.341176471  0 0 0 0.1 0" type="matrix" in="shadowBlurOuter1"></feColorMatrix>
        </filter>
        <mask id="mask-5" maskContentUnits="userSpaceOnUse" maskUnits="objectBoundingBox" x="0" y="0" width="470" height="160" fill="white">
            <use xlink:href="#path-3"></use>
        </mask>
        <rect id="path-6" x="0" y="0" width="264" height="50" rx="3"></rect>
        <filter x="-50%" y="-50%" width="200%" height="200%" filterUnits="objectBoundingBox" id="filter-7">
            <feOffset dx="0" dy="0" in="SourceAlpha" result="shadowOffsetOuter1"></feOffset>
            <feGaussianBlur stdDeviation="15" in="shadowOffsetOuter1" result="shadowBlurOuter1"></feGaussianBlur>
            <feComposite in="shadowBlurOuter1" in2="SourceAlpha" operator="out" result="shadowBlurOuter1"></feComposite>
            <feColorMatrix values="0 0 0 0 0.28627451   0 0 0 0 0.31372549   0 0 0 0 0.341176471  0 0 0 0.1 0" type="matrix" in="shadowBlurOuter1"></feColorMatrix>
        </filter>
        <mask id="mask-8" maskContentUnits="userSpaceOnUse" maskUnits="objectBoundingBox" x="0" y="0" width="264" height="50" fill="white">
            <use xlink:href="#path-6"></use>
        </mask>
        <linearGradient x1="50%" y1="0%" x2="50%" y2="100%" id="linearGradient-9">
            <stop stop-color="#FFFFFF" offset="0%"></stop>
            <stop stop-color="#E9ECEE" offset="100%"></stop>
        </linearGradient>
        <rect id="path-10" x="273" y="0" width="114" height="50" rx="3"></rect>
        <filter x="-50%" y="-50%" width="200%" height="200%" filterUnits="objectBoundingBox" id="filter-11">
            <feOffset dx="0" dy="0" in="SourceAlpha" result="shadowOffsetOuter1"></feOffset>
            <feGaussianBlur stdDeviation="15" in="shadowOffsetOuter1" result="shadowBlurOuter1"></feGaussianBlur>
            <feComposite in="shadowBlurOuter1" in2="SourceAlpha" operator="out" result="shadowBlurOuter1"></feComposite>
            <feColorMatrix values="0 0 0 0 0.28627451   0 0 0 0 0.31372549   0 0 0 0 0.341176471  0 0 0 0.1 0" type="matrix" in="shadowBlurOuter1"></feColorMatrix>
        </filter>
        <mask id="mask-12" maskContentUnits="userSpaceOnUse" maskUnits="objectBoundingBox" x="0" y="0" width="114" height="50" fill="white">
            <use xlink:href="#path-10"></use>
        </mask>
    </defs>
    <g id="Symbols" stroke="none" stroke-width="1" fill="none" fill-rule="evenodd">
        <g id="img-search-business">
            <g>
                <g id="cell-2" transform="translate(27.000000, 178.000000)">
                    <use id="Rectangle-9-Copy" stroke="#E3E9EE" mask="url(#mask-2)" stroke-width="2" fill="#FFFFFF" xlink:href="#path-1"></use>
                    <g id="meat" opacity="0.5" transform="translate(37.000000, 41.000000)">
                        <path d="M1.78613281,39.4228516 C1.91601562,41.125 3.35839844,42.2324219 5.45019531,42.2324219 C7.70605469,42.2324219 9.13476562,41.0771484 9.13476562,39.265625 C9.13476562,37.8164062 8.31445312,37.0234375 6.27050781,36.5107422 L5.23828125,36.2373047 C3.87792969,35.8886719 3.33789062,35.4443359 3.33789062,34.671875 C3.33789062,33.6738281 4.20605469,33.0175781 5.51855469,33.0175781 C6.74902344,33.0175781 7.58300781,33.6191406 7.75390625,34.6308594 L8.99121094,34.6308594 C8.88867188,33.0380859 7.46679687,31.9033203 5.55957031,31.9033203 C3.47460938,31.9033203 2.07324219,33.0380859 2.07324219,34.7128906 C2.07324219,36.1142578 2.84570312,36.9208984 4.62988281,37.3720703 L5.89453125,37.7001953 C7.25488281,38.0419922 7.87011719,38.5751953 7.87011719,39.4160156 C7.87011719,40.3935547 6.89257812,41.1113281 5.56640625,41.1113281 C4.16503906,41.1113281 3.18066406,40.4550781 3.03027344,39.4228516 L1.78613281,39.4228516 Z M11.0966797,42 L12.2724609,42 L12.2724609,31.7050781 L11.0966797,31.7050781 L11.0966797,42 Z M16.8251953,41.0976562 C18.0351562,41.0976562 18.9306641,40.3046875 18.9306641,39.2519531 L18.9306641,38.5751953 L16.9482422,38.7050781 C15.8271484,38.7802734 15.3349609,39.1699219 15.3349609,39.9082031 C15.3349609,40.6601562 15.9707031,41.0976562 16.8251953,41.0976562 Z M16.6064453,42.1298828 C15.1777344,42.1298828 14.1181641,41.2822266 14.1181641,39.9355469 C14.1181641,38.6162109 15.0888672,37.8574219 16.8046875,37.7548828 L18.9306641,37.625 L18.9306641,36.9550781 C18.9306641,36.0458984 18.3632812,35.546875 17.2626953,35.546875 C16.3808594,35.546875 15.765625,35.8818359 15.6015625,36.4628906 L14.4121094,36.4628906 C14.5693359,35.2802734 15.7314453,34.5009766 17.3037109,34.5009766 C19.1015625,34.5009766 20.1064453,35.4238281 20.1064453,36.9550781 L20.1064453,42 L18.9853516,42 L18.9853516,40.9130859 L18.8759766,40.9130859 C18.3974609,41.6992188 17.5908203,42.1298828 16.6064453,42.1298828 Z M28.3779297,36.8867188 C28.1728516,35.5742188 27.0791016,34.5009766 25.2880859,34.5009766 C23.2236328,34.5009766 21.9111328,35.9912109 21.9111328,38.2880859 C21.9111328,40.6328125 23.2304688,42.1298828 25.2949219,42.1298828 C27.0654297,42.1298828 28.1660156,41.1318359 28.3779297,39.7783203 L27.1884766,39.7783203 C26.9697266,40.6123047 26.2792969,41.0703125 25.2880859,41.0703125 C23.9755859,41.0703125 23.1279297,39.9902344 23.1279297,38.2880859 C23.1279297,36.6201172 23.9619141,35.5605469 25.2880859,35.5605469 C26.3476562,35.5605469 26.9970703,36.1552734 27.1884766,36.8867188 L28.3779297,36.8867188 Z M31.4677734,37.8505859 L31.3583984,37.8505859 L31.3583984,31.7050781 L30.1826172,31.7050781 L30.1826172,42 L31.3583984,42 L31.3583984,39.2041016 L32.0625,38.5478516 L34.8242188,42 L36.3212891,42 L32.9375,37.7890625 L36.109375,34.6308594 L34.6669922,34.6308594 L31.4677734,37.8505859 Z M41.8173828,32.1357422 L45.2011719,32.1357422 C48.1269531,32.1357422 49.8564453,33.9609375 49.8564453,37.0644531 C49.8564453,40.1748047 48.1337891,42 45.2011719,42 L41.8173828,42 L41.8173828,32.1357422 Z M43.0478516,33.2431641 L43.0478516,40.8925781 L45.1191406,40.8925781 C47.3203125,40.8925781 48.5986328,39.484375 48.5986328,37.078125 C48.5986328,34.6650391 47.3066406,33.2431641 45.1191406,33.2431641 L43.0478516,33.2431641 Z M54.7714844,35.5400391 C53.5957031,35.5400391 52.7753906,36.4013672 52.6865234,37.7070312 L56.7470703,37.7070312 C56.7197266,36.4013672 55.9404297,35.5400391 54.7714844,35.5400391 Z M56.7128906,40.0927734 L57.8886719,40.0927734 C57.5332031,41.3574219 56.3984375,42.1298828 54.7851562,42.1298828 C52.7412109,42.1298828 51.4628906,40.6533203 51.4628906,38.3222656 C51.4628906,36.0048828 52.7617188,34.5009766 54.7851562,34.5009766 C56.7744141,34.5009766 57.984375,35.9160156 57.984375,38.2060547 L57.984375,38.6572266 L52.6865234,38.6572266 L52.6865234,38.7119141 C52.7480469,40.1679688 53.5615234,41.0908203 54.8125,41.0908203 C55.7626953,41.0908203 56.4052734,40.7421875 56.7128906,40.0927734 Z M65.8457031,34.6308594 L64.5878906,34.6308594 L62.5712891,40.7011719 L62.4619141,40.7011719 L60.4453125,34.6308594 L59.1875,34.6308594 L61.9150391,42 L63.1181641,42 L65.8457031,34.6308594 Z M70.3574219,35.5400391 C69.1816406,35.5400391 68.3613281,36.4013672 68.2724609,37.7070312 L72.3330078,37.7070312 C72.3056641,36.4013672 71.5263672,35.5400391 70.3574219,35.5400391 Z M72.2988281,40.0927734 L73.4746094,40.0927734 C73.1191406,41.3574219 71.984375,42.1298828 70.3710938,42.1298828 C68.3271484,42.1298828 67.0488281,40.6533203 67.0488281,38.3222656 C67.0488281,36.0048828 68.3476562,34.5009766 70.3710938,34.5009766 C72.3603516,34.5009766 73.5703125,35.9160156 73.5703125,38.2060547 L73.5703125,38.6572266 L68.2724609,38.6572266 L68.2724609,38.7119141 C68.3339844,40.1679688 69.1474609,41.0908203 70.3984375,41.0908203 C71.3486328,41.0908203 71.9912109,40.7421875 72.2988281,40.0927734 Z M75.484375,42 L76.6601562,42 L76.6601562,31.7050781 L75.484375,31.7050781 L75.484375,42 Z M81.9716797,42.1298828 C79.8730469,42.1298828 78.5742188,40.6806641 78.5742188,38.3154297 C78.5742188,35.9433594 79.8730469,34.5009766 81.9716797,34.5009766 C84.0703125,34.5009766 85.3691406,35.9433594 85.3691406,38.3154297 C85.3691406,40.6806641 84.0703125,42.1298828 81.9716797,42.1298828 Z M81.9716797,41.0703125 C83.3662109,41.0703125 84.1523438,40.0585938 84.1523438,38.3154297 C84.1523438,36.5654297 83.3662109,35.5605469 81.9716797,35.5605469 C80.5771484,35.5605469 79.7910156,36.5654297 79.7910156,38.3154297 C79.7910156,40.0585938 80.5771484,41.0703125 81.9716797,41.0703125 Z M90.8037109,34.5009766 C92.6835938,34.5009766 93.9003906,35.9980469 93.9003906,38.3154297 C93.9003906,40.6191406 92.6767578,42.1298828 90.8037109,42.1298828 C89.7509766,42.1298828 88.9033203,41.671875 88.5,40.8925781 L88.390625,40.8925781 L88.390625,44.4609375 L87.2148438,44.4609375 L87.2148438,34.6308594 L88.3359375,34.6308594 L88.3359375,35.8613281 L88.4453125,35.8613281 C88.9169922,35.0136719 89.7988281,34.5009766 90.8037109,34.5009766 Z M90.5234375,41.0703125 C91.8769531,41.0703125 92.6835938,40.0380859 92.6835938,38.3154297 C92.6835938,36.5927734 91.8769531,35.5605469 90.5302734,35.5605469 C89.1972656,35.5605469 88.3564453,36.6201172 88.3564453,38.3154297 C88.3564453,40.0039062 89.1972656,41.0703125 90.5234375,41.0703125 Z M98.6855469,35.5400391 C97.5097656,35.5400391 96.6894531,36.4013672 96.6005859,37.7070312 L100.661133,37.7070312 C100.633789,36.4013672 99.8544922,35.5400391 98.6855469,35.5400391 Z M100.626953,40.0927734 L101.802734,40.0927734 C101.447266,41.3574219 100.3125,42.1298828 98.6992188,42.1298828 C96.6552734,42.1298828 95.3769531,40.6533203 95.3769531,38.3222656 C95.3769531,36.0048828 96.6757812,34.5009766 98.6992188,34.5009766 C100.688477,34.5009766 101.898438,35.9160156 101.898438,38.2060547 L101.898438,38.6572266 L96.6005859,38.6572266 L96.6005859,38.7119141 C96.6621094,40.1679688 97.4755859,41.0908203 98.7265625,41.0908203 C99.6767578,41.0908203 100.319336,40.7421875 100.626953,40.0927734 Z M103.744141,42 L104.919922,42 L104.919922,37.4335938 C104.919922,36.3945312 105.733398,35.6425781 106.854492,35.6425781 C107.086914,35.6425781 107.510742,35.6835938 107.606445,35.7109375 L107.606445,34.5351562 C107.456055,34.5146484 107.209961,34.5009766 107.018555,34.5009766 C106.041016,34.5009766 105.193359,35.0068359 104.974609,35.7246094 L104.865234,35.7246094 L104.865234,34.6308594 L103.744141,34.6308594 L103.744141,42 Z M114.408203,42 L114.408203,38.5546875 L115.59082,37.2490234 L119.152344,42 L120.745117,42 L116.438477,36.3945312 L120.382812,32.1357422 L118.837891,32.1357422 L114.517578,36.9277344 L114.408203,36.9277344 L114.408203,32.1357422 L113.177734,32.1357422 L113.177734,42 L114.408203,42 Z M122.276367,42 L123.452148,42 L123.452148,34.6308594 L122.276367,34.6308594 L122.276367,42 Z M122.864258,33.1337891 C123.31543,33.1337891 123.68457,32.7646484 123.68457,32.3134766 C123.68457,31.8623047 123.31543,31.4931641 122.864258,31.4931641 C122.413086,31.4931641 122.043945,31.8623047 122.043945,32.3134766 C122.043945,32.7646484 122.413086,33.1337891 122.864258,33.1337891 Z M126.186523,32.7236328 L126.186523,34.6308594 L124.99707,34.6308594 L124.99707,35.6152344 L126.186523,35.6152344 L126.186523,40.0859375 C126.186523,41.4941406 126.794922,42.0546875 128.3125,42.0546875 C128.544922,42.0546875 128.770508,42.0273438 129.00293,41.9863281 L129.00293,40.9951172 C128.78418,41.015625 128.667969,41.0224609 128.456055,41.0224609 C127.69043,41.0224609 127.362305,40.6533203 127.362305,39.7851562 L127.362305,35.6152344 L129.00293,35.6152344 L129.00293,34.6308594 L127.362305,34.6308594 L127.362305,32.7236328 L126.186523,32.7236328 Z M135.223633,42 L136.399414,42 L136.399414,35.6152344 L138.087891,35.6152344 L138.087891,34.6308594 L136.399414,34.6308594 L136.399414,33.9472656 C136.399414,33.1201172 136.795898,32.7646484 137.5,32.7646484 C137.732422,32.7646484 137.999023,32.7919922 138.15625,32.8261719 L138.15625,31.8417969 C137.869141,31.7939453 137.664062,31.7734375 137.431641,31.7734375 C136.009766,31.7734375 135.223633,32.4023438 135.223633,33.9130859 L135.223633,34.6308594 L134,34.6308594 L134,35.6152344 L135.223633,35.6152344 L135.223633,42 Z M142.825195,42.1298828 C140.726562,42.1298828 139.427734,40.6806641 139.427734,38.3154297 C139.427734,35.9433594 140.726562,34.5009766 142.825195,34.5009766 C144.923828,34.5009766 146.222656,35.9433594 146.222656,38.3154297 C146.222656,40.6806641 144.923828,42.1298828 142.825195,42.1298828 Z M142.825195,41.0703125 C144.219727,41.0703125 145.005859,40.0585938 145.005859,38.3154297 C145.005859,36.5654297 144.219727,35.5605469 142.825195,35.5605469 C141.430664,35.5605469 140.644531,36.5654297 140.644531,38.3154297 C140.644531,40.0585938 141.430664,41.0703125 142.825195,41.0703125 Z M148.068359,42 L149.244141,42 L149.244141,37.4335938 C149.244141,36.3945312 150.057617,35.6425781 151.178711,35.6425781 C151.411133,35.6425781 151.834961,35.6835938 151.930664,35.7109375 L151.930664,34.5351562 C151.780273,34.5146484 151.53418,34.5009766 151.342773,34.5009766 C150.365234,34.5009766 149.517578,35.0068359 149.298828,35.7246094 L149.189453,35.7246094 L149.189453,34.6308594 L148.068359,34.6308594 L148.068359,42 Z M165.376953,42 L165.376953,32.1357422 L164.146484,32.1357422 L164.146484,36.4013672 L158.732422,36.4013672 L158.732422,32.1357422 L157.501953,32.1357422 L157.501953,42 L158.732422,42 L158.732422,37.5087891 L164.146484,37.5087891 L164.146484,42 L165.376953,42 Z M173.703125,34.6308594 L172.527344,34.6308594 L172.527344,38.9921875 C172.527344,40.2841797 171.816406,41.0566406 170.517578,41.0566406 C169.341797,41.0566406 168.849609,40.4414062 168.849609,39.1152344 L168.849609,34.6308594 L167.673828,34.6308594 L167.673828,39.4023438 C167.673828,41.1455078 168.535156,42.1298828 170.189453,42.1298828 C171.317383,42.1298828 172.103516,41.6650391 172.472656,40.8447266 L172.582031,40.8447266 L172.582031,42 L173.703125,42 L173.703125,34.6308594 Z M179.582031,42.1298828 C178.556641,42.1298828 177.681641,41.6445312 177.216797,40.8242188 L177.107422,40.8242188 L177.107422,42 L175.986328,42 L175.986328,31.7050781 L177.162109,31.7050781 L177.162109,35.7929688 L177.271484,35.7929688 C177.674805,35 178.570312,34.5009766 179.582031,34.5009766 C181.455078,34.5009766 182.671875,35.9980469 182.671875,38.3154297 C182.671875,40.6191406 181.448242,42.1298828 179.582031,42.1298828 Z M179.308594,35.5605469 C177.96875,35.5605469 177.134766,36.6132812 177.134766,38.3154297 C177.134766,40.0175781 177.96875,41.0703125 179.308594,41.0703125 C180.655273,41.0703125 181.455078,40.0380859 181.455078,38.3154297 C181.455078,36.5927734 180.655273,35.5605469 179.308594,35.5605469 Z M187.545898,42.1298828 C185.447266,42.1298828 184.148438,40.6806641 184.148438,38.3154297 C184.148438,35.9433594 185.447266,34.5009766 187.545898,34.5009766 C189.644531,34.5009766 190.943359,35.9433594 190.943359,38.3154297 C190.943359,40.6806641 189.644531,42.1298828 187.545898,42.1298828 Z M187.545898,41.0703125 C188.94043,41.0703125 189.726562,40.0585938 189.726562,38.3154297 C189.726562,36.5654297 188.94043,35.5605469 187.545898,35.5605469 C186.151367,35.5605469 185.365234,36.5654297 185.365234,38.3154297 C185.365234,40.0585938 186.151367,41.0703125 187.545898,41.0703125 Z M193.28125,32.7236328 L193.28125,34.6308594 L192.091797,34.6308594 L192.091797,35.6152344 L193.28125,35.6152344 L193.28125,40.0859375 C193.28125,41.4941406 193.889648,42.0546875 195.407227,42.0546875 C195.639648,42.0546875 195.865234,42.0273438 196.097656,41.9863281 L196.097656,40.9951172 C195.878906,41.015625 195.762695,41.0224609 195.550781,41.0224609 C194.785156,41.0224609 194.457031,40.6533203 194.457031,39.7851562 L194.457031,35.6152344 L196.097656,35.6152344 L196.097656,34.6308594 L194.457031,34.6308594 L194.457031,32.7236328 L193.28125,32.7236328 Z" id="Slack-Developer-Kit" fill="#1F2427"></path>
                        <path d="M23.4824219,84.1992188 C25.28125,84.1992188 26.6171875,83.1972656 26.8984375,81.6445312 L25.8261719,81.6445312 C25.5566406,82.6230469 24.6601562,83.2265625 23.4824219,83.2265625 C21.8535156,83.2265625 20.8339844,81.8964844 20.8339844,79.7753906 C20.8339844,77.6542969 21.8535156,76.3183594 23.4765625,76.3183594 C24.6425781,76.3183594 25.5449219,77.0039062 25.8261719,78.09375 L26.8984375,78.09375 C26.6464844,76.4648438 25.2578125,75.3457031 23.4765625,75.3457031 C21.1796875,75.3457031 19.75,77.0449219 19.75,79.7753906 C19.75,82.5 21.1855469,84.1992188 23.4824219,84.1992188 Z M31.1347656,84.1113281 C29.3359375,84.1113281 28.2226562,82.8691406 28.2226562,80.8417969 C28.2226562,78.8085938 29.3359375,77.5722656 31.1347656,77.5722656 C32.9335938,77.5722656 34.046875,78.8085938 34.046875,80.8417969 C34.046875,82.8691406 32.9335938,84.1113281 31.1347656,84.1113281 Z M31.1347656,83.203125 C32.3300781,83.203125 33.0039062,82.3359375 33.0039062,80.8417969 C33.0039062,79.3417969 32.3300781,78.4804688 31.1347656,78.4804688 C29.9394531,78.4804688 29.265625,79.3417969 29.265625,80.8417969 C29.265625,82.3359375 29.9394531,83.203125 31.1347656,83.203125 Z M36.0507812,84 L37.0585938,84 L37.0585938,78.5273438 L38.5058594,78.5273438 L38.5058594,77.6835938 L37.0585938,77.6835938 L37.0585938,77.0976562 C37.0585938,76.3886719 37.3984375,76.0839844 38.0019531,76.0839844 C38.2011719,76.0839844 38.4296875,76.1074219 38.5644531,76.1367188 L38.5644531,75.2929688 C38.3183594,75.2519531 38.1425781,75.234375 37.9433594,75.234375 C36.7246094,75.234375 36.0507812,75.7734375 36.0507812,77.0683594 L36.0507812,77.6835938 L35.0019531,77.6835938 L35.0019531,78.5273438 L36.0507812,78.5273438 L36.0507812,84 Z M40.3925781,84 L41.4003906,84 L41.4003906,78.5273438 L42.8476562,78.5273438 L42.8476562,77.6835938 L41.4003906,77.6835938 L41.4003906,77.0976562 C41.4003906,76.3886719 41.7402344,76.0839844 42.34375,76.0839844 C42.5429688,76.0839844 42.7714844,76.1074219 42.90625,76.1367188 L42.90625,75.2929688 C42.6601562,75.2519531 42.484375,75.234375 42.2851562,75.234375 C41.0664062,75.234375 40.3925781,75.7734375 40.3925781,77.0683594 L40.3925781,77.6835938 L39.34375,77.6835938 L39.34375,78.5273438 L40.3925781,78.5273438 L40.3925781,84 Z M46.8320312,78.4628906 C45.8242188,78.4628906 45.1210938,79.2011719 45.0449219,80.3203125 L48.5253906,80.3203125 C48.5019531,79.2011719 47.8339844,78.4628906 46.8320312,78.4628906 Z M48.4960938,82.3652344 L49.5039062,82.3652344 C49.1992188,83.4492188 48.2265625,84.1113281 46.84375,84.1113281 C45.0917969,84.1113281 43.9960938,82.8457031 43.9960938,80.8476562 C43.9960938,78.8613281 45.109375,77.5722656 46.84375,77.5722656 C48.5488281,77.5722656 49.5859375,78.7851562 49.5859375,80.7480469 L49.5859375,81.1347656 L45.0449219,81.1347656 L45.0449219,81.1816406 C45.0976562,82.4296875 45.7949219,83.2207031 46.8671875,83.2207031 C47.6816406,83.2207031 48.2324219,82.921875 48.4960938,82.3652344 Z M53.6875,78.4628906 C52.6796875,78.4628906 51.9765625,79.2011719 51.9003906,80.3203125 L55.3808594,80.3203125 C55.3574219,79.2011719 54.6894531,78.4628906 53.6875,78.4628906 Z M55.3515625,82.3652344 L56.359375,82.3652344 C56.0546875,83.4492188 55.0820312,84.1113281 53.6992188,84.1113281 C51.9472656,84.1113281 50.8515625,82.8457031 50.8515625,80.8476562 C50.8515625,78.8613281 51.9648438,77.5722656 53.6992188,77.5722656 C55.4042969,77.5722656 56.4414062,78.7851562 56.4414062,80.7480469 L56.4414062,81.1347656 L51.9003906,81.1347656 L51.9003906,81.1816406 C51.953125,82.4296875 52.6503906,83.2207031 53.7226562,83.2207031 C54.5371094,83.2207031 55.0878906,82.921875 55.3515625,82.3652344 Z M57.7480469,81.7910156 C57.859375,83.25 59.0957031,84.1992188 60.8886719,84.1992188 C62.8222656,84.1992188 64.046875,83.2089844 64.046875,81.65625 C64.046875,80.4140625 63.34375,79.734375 61.5917969,79.2949219 L60.7070312,79.0605469 C59.5410156,78.7617188 59.078125,78.3808594 59.078125,77.71875 C59.078125,76.8632812 59.8222656,76.3007812 60.9472656,76.3007812 C62.0019531,76.3007812 62.7167969,76.8164062 62.8632812,77.6835938 L63.9238281,77.6835938 C63.8359375,76.3183594 62.6171875,75.3457031 60.9824219,75.3457031 C59.1953125,75.3457031 57.9941406,76.3183594 57.9941406,77.7539062 C57.9941406,78.9550781 58.65625,79.6464844 60.1855469,80.0332031 L61.2695312,80.3144531 C62.4355469,80.6074219 62.9628906,81.0644531 62.9628906,81.7851562 C62.9628906,82.6230469 62.125,83.2382812 60.9882812,83.2382812 C59.7871094,83.2382812 58.9433594,82.6757812 58.8144531,81.7910156 L57.7480469,81.7910156 Z M70.8964844,79.6171875 C70.7207031,78.4921875 69.7832031,77.5722656 68.2480469,77.5722656 C66.4785156,77.5722656 65.3535156,78.8496094 65.3535156,80.8183594 C65.3535156,82.828125 66.484375,84.1113281 68.2539062,84.1113281 C69.7714844,84.1113281 70.7148438,83.2558594 70.8964844,82.0957031 L69.8769531,82.0957031 C69.6894531,82.8105469 69.0976562,83.203125 68.2480469,83.203125 C67.1230469,83.203125 66.3964844,82.2773438 66.3964844,80.8183594 C66.3964844,79.3886719 67.1113281,78.4804688 68.2480469,78.4804688 C69.15625,78.4804688 69.7128906,78.9902344 69.8769531,79.6171875 L70.8964844,79.6171875 Z M72.3847656,84 L73.3925781,84 L73.3925781,80.0859375 C73.3925781,79.1953125 74.0898438,78.5507812 75.0507812,78.5507812 C75.25,78.5507812 75.6132812,78.5859375 75.6953125,78.609375 L75.6953125,77.6015625 C75.5664062,77.5839844 75.3554688,77.5722656 75.1914062,77.5722656 C74.3535156,77.5722656 73.6269531,78.0058594 73.4394531,78.6210938 L73.3457031,78.6210938 L73.3457031,77.6835938 L72.3847656,77.6835938 L72.3847656,84 Z M76.9785156,84 L77.9863281,84 L77.9863281,77.6835938 L76.9785156,77.6835938 L76.9785156,84 Z M77.4824219,76.4003906 C77.8691406,76.4003906 78.1855469,76.0839844 78.1855469,75.6972656 C78.1855469,75.3105469 77.8691406,74.9941406 77.4824219,74.9941406 C77.0957031,74.9941406 76.7792969,75.3105469 76.7792969,75.6972656 C76.7792969,76.0839844 77.0957031,76.4003906 77.4824219,76.4003906 Z M82.984375,77.5722656 C84.5957031,77.5722656 85.6386719,78.8554688 85.6386719,80.8417969 C85.6386719,82.8164062 84.5898438,84.1113281 82.984375,84.1113281 C82.0820312,84.1113281 81.3554688,83.71875 81.0097656,83.0507812 L80.9160156,83.0507812 L80.9160156,86.109375 L79.9082031,86.109375 L79.9082031,77.6835938 L80.8691406,77.6835938 L80.8691406,78.7382812 L80.9628906,78.7382812 C81.3671875,78.0117188 82.1230469,77.5722656 82.984375,77.5722656 Z M82.7441406,83.203125 C83.9042969,83.203125 84.5957031,82.3183594 84.5957031,80.8417969 C84.5957031,79.3652344 83.9042969,78.4804688 82.75,78.4804688 C81.6074219,78.4804688 80.8867188,79.3886719 80.8867188,80.8417969 C80.8867188,82.2890625 81.6074219,83.203125 82.7441406,83.203125 Z M87.6425781,76.0488281 L87.6425781,77.6835938 L86.6230469,77.6835938 L86.6230469,78.5273438 L87.6425781,78.5273438 L87.6425781,82.359375 C87.6425781,83.5664062 88.1640625,84.046875 89.4648438,84.046875 C89.6640625,84.046875 89.8574219,84.0234375 90.0566406,83.9882812 L90.0566406,83.1386719 C89.8691406,83.15625 89.7695312,83.1621094 89.5878906,83.1621094 C88.9316406,83.1621094 88.6503906,82.8457031 88.6503906,82.1015625 L88.6503906,78.5273438 L90.0566406,78.5273438 L90.0566406,77.6835938 L88.6503906,77.6835938 L88.6503906,76.0488281 L87.6425781,76.0488281 Z" id="CoffeeScript" fill="#1F2427"></path>
                        <path d="M138.964844,84 L140.019531,84 L140.019531,75.5449219 L138.970703,75.5449219 L136.720703,77.1621094 L136.720703,78.2753906 L138.871094,76.7167969 L138.964844,76.7167969 L138.964844,84 Z M143.265625,86.1503906 L144.132812,82.8164062 L142.949219,82.8164062 L142.386719,86.1503906 L143.265625,86.1503906 Z M148.990234,84.1992188 C147.197266,84.1992188 145.943359,83.1855469 145.943359,81.7382812 C145.943359,80.6367188 146.640625,79.78125 147.701172,79.5820312 L147.701172,79.4882812 C146.839844,79.2539062 146.289062,78.5214844 146.289062,77.6015625 C146.289062,76.2832031 147.408203,75.3457031 148.990234,75.3457031 C150.572266,75.3457031 151.691406,76.2832031 151.691406,77.6015625 C151.691406,78.5273438 151.152344,79.2480469 150.279297,79.4882812 L150.279297,79.5820312 C151.339844,79.78125 152.037109,80.6367188 152.037109,81.7382812 C152.037109,83.1855469 150.783203,84.1992188 148.990234,84.1992188 Z M148.990234,83.296875 C150.162109,83.296875 150.970703,82.6289062 150.970703,81.6621094 C150.970703,80.6953125 150.162109,80.0273438 148.990234,80.0273438 C147.818359,80.0273438 147.009766,80.6953125 147.009766,81.6621094 C147.009766,82.6289062 147.818359,83.296875 148.990234,83.296875 Z M148.990234,79.1367188 C149.986328,79.1367188 150.654297,78.5625 150.654297,77.7011719 C150.654297,76.828125 149.992188,76.2480469 148.990234,76.2480469 C147.988281,76.2480469 147.326172,76.828125 147.326172,77.7011719 C147.326172,78.5625 147.994141,79.1367188 148.990234,79.1367188 Z M156.607422,84.1992188 C154.703125,84.1992188 153.607422,82.5820312 153.607422,79.7695312 C153.607422,76.9804688 154.714844,75.3457031 156.607422,75.3457031 C158.488281,75.3457031 159.595703,76.9863281 159.595703,79.7871094 C159.595703,82.59375 158.505859,84.1992188 156.607422,84.1992188 Z M156.607422,83.2792969 C157.855469,83.2792969 158.535156,82.0371094 158.535156,79.7695312 C158.535156,77.5253906 157.84375,76.2714844 156.607422,76.2714844 C155.371094,76.2714844 154.667969,77.5371094 154.667969,79.7695312 C154.667969,82.03125 155.359375,83.2792969 156.607422,83.2792969 Z M165.185547,84 L165.185547,82.2480469 L161.066406,82.2480469 L161.066406,81.2871094 C161.822266,79.9453125 163.164062,77.8242188 164.6875,75.5449219 L166.216797,75.5449219 L166.216797,81.3046875 L167.417969,81.3046875 L167.417969,82.2480469 L166.216797,82.2480469 L166.216797,84 L165.185547,84 Z M162.144531,81.2402344 L162.144531,81.3105469 L165.191406,81.3105469 L165.191406,76.5234375 L165.121094,76.5234375 C164.253906,77.7832031 163.152344,79.5292969 162.144531,81.2402344 Z" id="1,804" fill="#1F2427"></path>
                        <path d="M222.732422,84.1992188 C224.484375,84.1992188 225.685547,83.0273438 225.685547,81.3105469 C225.685547,79.6464844 224.560547,78.4804688 222.955078,78.4804688 C222.175781,78.4804688 221.578125,78.7207031 221.167969,79.2011719 L221.074219,79.2011719 L221.314453,76.4882812 L225.205078,76.4882812 L225.205078,75.5449219 L220.488281,75.5449219 L220.025391,80.3378906 L221.015625,80.3378906 C221.361328,79.734375 221.994141,79.3886719 222.761719,79.3886719 C223.869141,79.3886719 224.630859,80.1796875 224.630859,81.3398438 C224.630859,82.5 223.875,83.2734375 222.744141,83.2734375 C221.748047,83.2734375 221.021484,82.6640625 220.927734,81.75 L219.890625,81.75 C219.984375,83.2089844 221.132812,84.1992188 222.732422,84.1992188 Z M229.388672,84 L230.443359,84 L230.443359,75.5449219 L229.394531,75.5449219 L227.144531,77.1621094 L227.144531,78.2753906 L229.294922,76.7167969 L229.388672,76.7167969 L229.388672,84 Z M232.910156,77.9238281 L232.910156,77.9296875 L233.929688,77.9296875 L233.929688,77.9238281 C233.929688,76.9277344 234.597656,76.265625 235.587891,76.265625 C236.519531,76.265625 237.240234,76.9160156 237.240234,77.7597656 C237.240234,78.4394531 236.976562,78.8964844 235.886719,80.0800781 L232.962891,83.2734375 L232.962891,84 L238.435547,84 L238.435547,83.0507812 L234.474609,83.0507812 L234.474609,82.9570312 L236.507812,80.7714844 C237.896484,79.2832031 238.294922,78.5976562 238.294922,77.71875 C238.294922,76.3769531 237.134766,75.3457031 235.617188,75.3457031 C234.046875,75.3457031 232.910156,76.4238281 232.910156,77.9238281 Z" id="512" fill="#1F2427"></path>
                        <path d="M208,73 C206.89,73 206,73.89 206,75 C206,75.73 206.41,76.38 207,76.72 L207,78 L205,80 L203,78 L203,76.72 C203.59,76.38 204,75.74 204,75 C204,73.89 203.11,73 202,73 C200.89,73 200,73.89 200,75 C200,75.73 200.41,76.38 201,76.72 L201,78.5 L204,81.5 L204,83.28 C203.41,83.62 203,84.26 203,85 C203,86.11 203.89,87 205,87 C206.11,87 207,86.11 207,85 C207,84.27 206.59,83.62 206,83.28 L206,81.5 L209,78.5 L209,76.72 C209.59,76.38 210,75.74 210,75 C210,73.89 209.11,73 208,73 L208,73 Z M202,76.2 C201.34,76.2 200.8,75.65 200.8,75 C200.8,74.35 201.35,73.8 202,73.8 C202.65,73.8 203.2,74.35 203.2,75 C203.2,75.65 202.65,76.2 202,76.2 L202,76.2 Z M205,86.2 C204.34,86.2 203.8,85.65 203.8,85 C203.8,84.35 204.35,83.8 205,83.8 C205.65,83.8 206.2,84.35 206.2,85 C206.2,85.65 205.65,86.2 205,86.2 L205,86.2 Z M208,76.2 C207.34,76.2 206.8,75.65 206.8,75 C206.8,74.35 207.35,73.8 208,73.8 C208.65,73.8 209.2,74.35 209.2,75 C209.2,75.65 208.65,76.2 208,76.2 L208,76.2 Z" id="Shape-Copy" fill="#BCC1C8"></path>
                        <circle id="Oval-4-Copy" fill="#0366D6" cx="7" cy="80" r="6"></circle>
                        <polygon id="Shape-Copy-2" fill="#BCC1C8" points="129 77.3846154 123.75 76.6953846 121.5 72 119.25 76.6953846 114 77.3846154 117.857143 80.8953846 116.860714 86 121.5 83.4907692 126.139286 86 125.142857 80.8953846"></polygon>
                        <path d="M1.05419922,6.51708984 C1.05419922,7.88671875 1.87597656,8.69189453 3.61914062,9.09033203 L5.22949219,9.46386719 C6.09277344,9.65478516 6.48291016,9.97851562 6.48291016,10.4931641 C6.48291016,11.1655273 5.76074219,11.6220703 4.72314453,11.6220703 C3.69384766,11.6220703 3.0546875,11.2236328 2.85546875,10.5512695 L0.821777344,10.5512695 C0.979492188,12.203125 2.40722656,13.1826172 4.67333984,13.1826172 C6.93945312,13.1826172 8.54150391,12.0205078 8.54150391,10.2773438 C8.54150391,8.94091797 7.73632812,8.19384766 6.00146484,7.80371094 L4.39941406,7.43847656 C3.48632812,7.23095703 3.0546875,6.91552734 3.0546875,6.40087891 C3.0546875,5.74511719 3.76025391,5.296875 4.69824219,5.296875 C5.66113281,5.296875 6.26708984,5.70361328 6.41650391,6.34277344 L8.35058594,6.34277344 C8.20117188,4.69091797 6.84814453,3.73632812 4.68994141,3.73632812 C2.54833984,3.73632812 1.05419922,4.87353516 1.05419922,6.51708984 Z M10.5880078,13 L12.6466016,13 L12.6466016,0.407714844 L10.5880078,0.407714844 L10.5880078,13 Z M18.2292383,11.5307617 C19.4743555,11.5307617 20.404043,10.7255859 20.404043,9.67138672 L20.404043,8.94921875 L18.35375,9.08203125 C17.1999414,9.15673828 16.6603906,9.57177734 16.6603906,10.3105469 C16.6603906,11.0742188 17.3161523,11.5307617 18.2292383,11.5307617 Z M17.6232813,13.1494141 C15.8718164,13.1494141 14.6183984,12.0869141 14.6183984,10.4267578 C14.6183984,8.78320313 15.8552148,7.83691406 18.0632227,7.70410156 L20.404043,7.56298828 L20.404043,6.79931641 C20.404043,5.91113281 19.8063867,5.41308594 18.694082,5.41308594 C17.747793,5.41308594 17.100332,5.74511719 16.9094141,6.359375 L14.9670313,6.359375 C15.1330469,4.75732422 16.6354883,3.73632813 18.7936914,3.73632813 C21.1262109,3.73632813 22.4377344,4.87353516 22.4377344,6.79931641 L22.4377344,13 L20.4538477,13 L20.4538477,11.7548828 L20.3127344,11.7548828 C19.8063867,12.6347656 18.810293,13.1494141 17.6232813,13.1494141 Z M32.6356055,6.97363281 C32.4197852,5.06445312 31.0086523,3.73632812 28.6761328,3.73632812 C25.9451758,3.73632812 24.343125,5.48779297 24.343125,8.43457031 C24.343125,11.4228516 25.9534766,13.1826172 28.6844336,13.1826172 C30.98375,13.1826172 32.4114844,11.9042969 32.6356055,10.003418 L30.6766211,10.003418 C30.4608008,10.949707 29.7469336,11.4560547 28.6761328,11.4560547 C27.2733008,11.4560547 26.4266211,10.34375 26.4266211,8.43457031 C26.4266211,6.55029297 27.265,5.46289062 28.6761328,5.46289062 C29.8050391,5.46289062 30.4857031,6.09375 30.6766211,6.97363281 L32.6356055,6.97363281 Z M36.7656055,7.62109375 L36.6244922,7.62109375 L36.6244922,0.407714844 L34.5658984,0.407714844 L34.5658984,13 L36.6244922,13 L36.6244922,9.83740234 L37.3549609,9.10693359 L40.2685352,13 L42.7587695,13 L38.8906055,7.81201172 L42.5097461,3.91894531 L40.1191211,3.91894531 L36.7656055,7.62109375 Z M47.0298828,11.5307617 C48.275,11.5307617 49.2046875,10.7255859 49.2046875,9.67138672 L49.2046875,8.94921875 L47.1543945,9.08203125 C46.0005859,9.15673828 45.4610352,9.57177734 45.4610352,10.3105469 C45.4610352,11.0742188 46.1167969,11.5307617 47.0298828,11.5307617 Z M46.4239258,13.1494141 C44.6724609,13.1494141 43.419043,12.0869141 43.419043,10.4267578 C43.419043,8.78320313 44.6558594,7.83691406 46.8638672,7.70410156 L49.2046875,7.56298828 L49.2046875,6.79931641 C49.2046875,5.91113281 48.6070313,5.41308594 47.4947266,5.41308594 C46.5484375,5.41308594 45.9009766,5.74511719 45.7100586,6.359375 L43.7676758,6.359375 C43.9336914,4.75732422 45.4361328,3.73632813 47.5943359,3.73632813 C49.9268555,3.73632813 51.2383789,4.87353516 51.2383789,6.79931641 L51.2383789,13 L49.2544922,13 L49.2544922,11.7548828 L49.1133789,11.7548828 C48.6070313,12.6347656 47.6109375,13.1494141 46.4239258,13.1494141 Z M58.5392773,3.76953125 C60.8385938,3.76953125 62.2829297,5.54589844 62.2829297,8.45947266 C62.2829297,11.3564453 60.8551953,13.1494141 58.5641797,13.1494141 C57.260957,13.1494141 56.2565625,12.5849609 55.7917188,11.6220703 L55.6506055,11.6220703 L55.6506055,16.0214844 L53.5920117,16.0214844 L53.5920117,3.91894531 L55.5758984,3.91894531 L55.5758984,5.42138672 L55.7170117,5.42138672 C56.2399609,4.39208984 57.2941602,3.76953125 58.5392773,3.76953125 Z M57.8918164,11.3979492 C59.3195508,11.3979492 60.1662305,10.2939453 60.1662305,8.45947266 C60.1662305,6.625 59.31125,5.52099609 57.9001172,5.52099609 C56.4972852,5.52099609 55.6174023,6.64990234 55.6091016,8.45947266 C55.6174023,10.2773438 56.4889844,11.3979492 57.8918164,11.3979492 Z M64.2547266,13 L66.3050195,13 L66.3050195,3.91894531 L64.2547266,3.91894531 L64.2547266,13 Z M65.2757227,2.44140625 C66.0310938,2.44140625 66.5457422,1.95996094 66.5457422,1.30419922 C66.5457422,0.6484375 66.0310938,0.166992188 65.2757227,0.166992188 C64.5286523,0.166992188 64.0057031,0.6484375 64.0057031,1.30419922 C64.0057031,1.95996094 64.5286523,2.44140625 65.2757227,2.44140625 Z M74.1582813,15.5068359 L77.7027148,1.02197266 L75.8018359,1.02197266 L72.2906055,15.5068359 L74.1582813,15.5068359 Z M83.1321484,13 L85.199043,13 L86.3611523,7.53808594 C86.6184766,6.35107422 87.4568555,5.49609375 88.6687695,5.49609375 C89.714668,5.49609375 90.3289258,6.11035156 90.3289258,7.05664063 C90.3289258,7.29736328 90.2874219,7.54638672 90.2293164,7.81201172 L89.1336133,13 L91.2005078,13 L92.3626172,7.47167969 C92.445625,7.08984375 92.4871289,6.73291016 92.4871289,6.40087891 C92.4871289,4.94824219 91.457832,3.75292969 89.7063672,3.75292969 C88.3533398,3.75292969 87.5398633,4.42529297 86.9754102,5.28027344 L86.8342969,5.28027344 L87.8718945,0.44921875 L85.805,0.44921875 L83.1321484,13 Z M103.340762,3.91894531 L101.273867,3.91894531 L100.128359,9.27294922 C99.8627344,10.5263672 99.0077539,11.3813477 97.7875391,11.3813477 C96.7416406,11.3813477 96.235293,10.8833008 96.235293,9.86230469 C96.235293,9.6796875 96.2767969,9.30615234 96.3266016,9.04052734 L97.4140039,3.91894531 L95.3388086,3.91894531 L94.2016016,9.37255859 C94.1268945,9.76269531 94.0770898,10.2607422 94.0770898,10.534668 C94.0770898,12.1035156 95.172793,13.1826172 96.8246484,13.1826172 C98.1278711,13.1826172 99.040957,12.5766602 99.572207,11.6801758 L99.7133203,11.6801758 L99.422793,13 L101.41498,13 L103.340762,3.91894531 Z M109.04791,13.1494141 C107.777891,13.1494141 106.648984,12.4106445 106.316953,11.3481445 L106.17584,11.3481445 L105.810605,13 L103.826719,13 L106.49957,0.407714844 L108.558164,0.407714844 L107.55377,5.18066406 L107.703184,5.17236328 C108.325742,4.27587891 109.25543,3.76953125 110.475645,3.76953125 C112.293516,3.76953125 113.621641,5.17236328 113.621641,7.25585938 C113.621641,10.6176758 111.621152,13.1494141 109.04791,13.1494141 Z M108.674375,11.3730469 C110.259824,11.3730469 111.480039,9.75439453 111.480039,7.59619141 C111.480039,6.25146484 110.74127,5.50439453 109.612363,5.50439453 C108.010312,5.50439453 106.740293,7.18115234 106.740293,9.23144531 C106.740293,10.5844727 107.520566,11.3730469 108.674375,11.3730469 Z M117.195488,9.18164062 C117.195488,10.5678711 117.950859,11.4560547 119.12957,11.4560547 C120.598809,11.4560547 121.802422,9.82080078 121.802422,7.83691406 C121.802422,6.35107422 121.096855,5.46289062 119.926445,5.46289062 C118.332695,5.46289062 117.195488,7.0234375 117.195488,9.18164062 Z M118.971855,13.1826172 C116.622734,13.1826172 115.037285,11.6137695 115.037285,9.28955078 C115.037285,6.07714844 117.145684,3.73632812 120.050957,3.73632812 C122.400078,3.73632812 123.968926,5.28857422 123.968926,7.62939453 C123.968926,10.8168945 121.843926,13.1826172 118.971855,13.1826172 Z M128.480762,13.0415039 C128.945605,13.0415039 129.377246,13.0166016 129.642871,12.9501953 L129.966602,11.3564453 C129.775684,11.3813477 129.551562,11.3979492 129.285938,11.3979492 C128.605273,11.3979492 128.231738,11.1323242 128.231738,10.5263672 C128.231738,10.3603516 128.256641,10.1445312 128.314746,9.89550781 L129.227832,5.62060547 L131.195117,5.62060547 L131.552051,3.97705078 L129.568164,3.97705078 L130.05791,1.69433594 L127.982715,1.69433594 L127.50957,3.97705078 L126.02373,3.97705078 L125.683398,5.62060547 L127.160937,5.62060547 L126.139941,10.3603516 C126.081836,10.6425781 126.048633,10.9165039 126.048633,11.1489258 C126.048633,12.3774414 127.044727,13.0415039 128.480762,13.0415039 Z M137.674238,9.14013672 L138.080977,7.20605469 L132.627363,7.20605469 L132.228926,9.14013672 L137.674238,9.14013672 Z M139.397012,10.4516602 C139.48832,12.0786133 141.023965,13.1826172 143.231973,13.1826172 C145.489785,13.1826172 147.083535,12.0039062 147.083535,10.2856445 C147.083535,9.10693359 146.444375,8.37646484 144.958535,7.87841797 L143.572305,7.40527344 C142.833535,7.15625 142.468301,6.84912109 142.468301,6.38427734 C142.468301,5.75341797 143.148965,5.30517578 144.086953,5.30517578 C145.00834,5.30517578 145.664102,5.71191406 145.805215,6.359375 L147.730996,6.359375 C147.56498,4.78222656 146.203652,3.73632812 144.103555,3.73632812 C141.970254,3.73632812 140.467812,4.87353516 140.467812,6.59179688 C140.467812,7.78710938 141.165078,8.53417969 142.592812,9.02392578 L144.003945,9.49707031 C144.751016,9.73779297 145.00834,10.0615234 145.00834,10.5014648 C145.00834,11.1655273 144.294473,11.6220703 143.256875,11.6220703 C142.269082,11.6220703 141.580117,11.1323242 141.414102,10.4516602 L139.397012,10.4516602 Z M148.524082,13 L151.196934,0.407714844 L153.272129,0.407714844 L150.599277,13 L148.524082,13 Z M156.663359,11.5390625 C157.808867,11.5390625 158.788359,10.8085938 159.01248,9.80419922 L159.203398,8.92431641 L157.128203,9.015625 C155.899687,9.06542969 155.160918,9.58837891 155.160918,10.3769531 C155.160918,11.0576172 155.783477,11.5390625 156.663359,11.5390625 Z M155.849883,13.1494141 C154.297637,13.1494141 153.118926,12.0703125 153.118926,10.6591797 C153.118926,8.83300781 154.579863,7.72070313 157.119902,7.62939453 L159.493926,7.53808594 L159.618437,6.95703125 C159.651641,6.79101563 159.659941,6.69970703 159.659941,6.59179688 C159.659941,5.86132813 159.029082,5.41308594 157.999785,5.41308594 C157.136504,5.41308594 156.522246,5.74511719 156.264922,6.34277344 L154.264434,6.34277344 C154.65457,4.74072266 156.165312,3.73632813 158.1575,3.73632813 C160.290801,3.73632813 161.710234,4.78222656 161.710234,6.359375 C161.710234,6.60009766 161.677031,6.87402344 161.635527,7.09814453 L160.382109,13 L158.381621,13 L158.622344,11.8544922 L158.48123,11.8544922 C157.925078,12.6513672 156.928984,13.1494141 155.849883,13.1494141 Z M171.766992,6.92382812 C171.766992,6.79931641 171.758691,6.66650391 171.74209,6.55029297 C171.551172,5.04785156 170.156641,3.73632812 168.098047,3.73632812 C165.184473,3.73632812 163.159082,6.13525391 163.159082,9.34765625 C163.159082,11.671875 164.678125,13.1826172 167.018945,13.1826172 C169.268457,13.1826172 170.862207,11.862793 171.185937,10.0947266 L169.177148,10.0947266 C168.87832,10.9580078 168.139551,11.4394531 167.160059,11.4394531 C166.047754,11.4394531 165.242578,10.6508789 165.242578,9.16503906 C165.242578,7.07324219 166.371484,5.47119141 167.956934,5.47119141 C168.944727,5.47119141 169.716699,6.04394531 169.774805,6.92382812 L171.766992,6.92382812 Z M175.789082,7.43017578 L175.647969,7.43017578 L177.142109,0.407714844 L175.075215,0.407714844 L172.402363,13 L174.469258,13 L175.149922,9.80419922 L176.121113,9.02392578 L178.31252,13 L180.611836,13 L177.78127,7.87011719 L182.280293,3.91894531 L179.80666,3.91894531 L175.789082,7.43017578 Z" id="slackapi-/-hubot-sla" fill="#0366D6"></path>
                    </g>
                </g>
                <g id="cell-1" transform="translate(0.000000, 36.000000)">
                    <g id="Rectangle-9">
                        <use fill="black" fill-opacity="1" filter="url(#filter-4)" xlink:href="#path-3"></use>
                        <use stroke="#E3E9EE" mask="url(#mask-5)" stroke-width="2" fill="#FFFFFF" fill-rule="evenodd" xlink:href="#path-3"></use>
                    </g>
                    <g id="meat" transform="translate(37.000000, 41.000000)">
                        <path d="M8.66992188,42 L7.67871094,39.1767578 L3.75488281,39.1767578 L2.76367188,42 L1.47167969,42 L5.10839844,32.1357422 L6.32519531,32.1357422 L9.96191406,42 L8.66992188,42 Z M5.66210938,33.7285156 L4.1171875,38.1308594 L7.31640625,38.1308594 L5.77148438,33.7285156 L5.66210938,33.7285156 Z M21.5898438,36.8867188 C21.3847656,35.5742188 20.2910156,34.5009766 18.5,34.5009766 C16.4355469,34.5009766 15.1230469,35.9912109 15.1230469,38.2880859 C15.1230469,40.6328125 16.4423828,42.1298828 18.5068359,42.1298828 C20.2773438,42.1298828 21.3779297,41.1318359 21.5898438,39.7783203 L20.4003906,39.7783203 C20.1816406,40.6123047 19.4912109,41.0703125 18.5,41.0703125 C17.1875,41.0703125 16.3398438,39.9902344 16.3398438,38.2880859 C16.3398438,36.6201172 17.1738281,35.5605469 18.5,35.5605469 C19.5595703,35.5605469 20.2089844,36.1552734 20.4003906,36.8867188 L21.5898438,36.8867188 Z M29.2871094,34.6308594 L28.1113281,34.6308594 L28.1113281,38.9921875 C28.1113281,40.2841797 27.4003906,41.0566406 26.1015625,41.0566406 C24.9257812,41.0566406 24.4335938,40.4414062 24.4335938,39.1152344 L24.4335938,34.6308594 L23.2578125,34.6308594 L23.2578125,39.4023438 C23.2578125,41.1455078 24.1191406,42.1298828 25.7734375,42.1298828 C26.9013672,42.1298828 27.6875,41.6650391 28.0566406,40.8447266 L28.1660156,40.8447266 L28.1660156,42 L29.2871094,42 L29.2871094,34.6308594 Z M31.3310547,36.6474609 C31.3310547,37.7138672 31.9599609,38.3085938 33.3408203,38.6435547 L34.6054688,38.9511719 C35.3916016,39.1425781 35.7744141,39.484375 35.7744141,39.9902344 C35.7744141,40.6669922 35.0634766,41.1386719 34.0722656,41.1386719 C33.1289062,41.1386719 32.5410156,40.7421875 32.3427734,40.1201172 L31.1328125,40.1201172 C31.2626953,41.34375 32.390625,42.1298828 34.03125,42.1298828 C35.7060547,42.1298828 36.984375,41.2207031 36.984375,39.9013672 C36.984375,38.8417969 36.3144531,38.2402344 34.9267578,37.9052734 L33.7919922,37.6318359 C32.9238281,37.4199219 32.5136719,37.1054688 32.5136719,36.5996094 C32.5136719,35.9433594 33.1972656,35.4990234 34.0722656,35.4990234 C34.9609375,35.4990234 35.5351562,35.8886719 35.6923828,36.4765625 L36.8544922,36.4765625 C36.6972656,35.2666016 35.6240234,34.5009766 34.0791016,34.5009766 C32.5136719,34.5009766 31.3310547,35.4238281 31.3310547,36.6474609 Z M39.3222656,32.7236328 L39.3222656,34.6308594 L38.1328125,34.6308594 L38.1328125,35.6152344 L39.3222656,35.6152344 L39.3222656,40.0859375 C39.3222656,41.4941406 39.9306641,42.0546875 41.4482422,42.0546875 C41.6806641,42.0546875 41.90625,42.0273438 42.1386719,41.9863281 L42.1386719,40.9951172 C41.9199219,41.015625 41.8037109,41.0224609 41.5917969,41.0224609 C40.8261719,41.0224609 40.4980469,40.6533203 40.4980469,39.7851562 L40.4980469,35.6152344 L42.1386719,35.6152344 L42.1386719,34.6308594 L40.4980469,34.6308594 L40.4980469,32.7236328 L39.3222656,32.7236328 Z M46.9443359,42.1298828 C44.8457031,42.1298828 43.546875,40.6806641 43.546875,38.3154297 C43.546875,35.9433594 44.8457031,34.5009766 46.9443359,34.5009766 C49.0429688,34.5009766 50.3417969,35.9433594 50.3417969,38.3154297 C50.3417969,40.6806641 49.0429688,42.1298828 46.9443359,42.1298828 Z M46.9443359,41.0703125 C48.3388672,41.0703125 49.125,40.0585938 49.125,38.3154297 C49.125,36.5654297 48.3388672,35.5605469 46.9443359,35.5605469 C45.5498047,35.5605469 44.7636719,36.5654297 44.7636719,38.3154297 C44.7636719,40.0585938 45.5498047,41.0703125 46.9443359,41.0703125 Z M52.1875,42 L53.3632812,42 L53.3632812,37.4335938 C53.3632812,36.3945312 54.1083984,35.5605469 55.0722656,35.5605469 C56.0019531,35.5605469 56.6103516,36.1210938 56.6103516,36.9960938 L56.6103516,42 L57.7861328,42 L57.7861328,37.2626953 C57.7861328,36.3261719 58.4697266,35.5605469 59.4951172,35.5605469 C60.5341797,35.5605469 61.046875,36.09375 61.046875,37.1806641 L61.046875,42 L62.2226562,42 L62.2226562,36.9072266 C62.2226562,35.3623047 61.3818359,34.5009766 59.8779297,34.5009766 C58.859375,34.5009766 58.0185547,35.0136719 57.6220703,35.7929688 L57.5126953,35.7929688 C57.1708984,35.0273438 56.4736328,34.5009766 55.4755859,34.5009766 C54.4912109,34.5009766 53.7529297,34.9726562 53.4179688,35.7929688 L53.3085938,35.7929688 L53.3085938,34.6308594 L52.1875,34.6308594 L52.1875,42 Z M64.3964844,42 L65.5722656,42 L65.5722656,34.6308594 L64.3964844,34.6308594 L64.3964844,42 Z M64.984375,33.1337891 C65.4355469,33.1337891 65.8046875,32.7646484 65.8046875,32.3134766 C65.8046875,31.8623047 65.4355469,31.4931641 64.984375,31.4931641 C64.5332031,31.4931641 64.1640625,31.8623047 64.1640625,32.3134766 C64.1640625,32.7646484 64.5332031,33.1337891 64.984375,33.1337891 Z M67.6435547,42 L73.3173828,42 L73.3173828,41.015625 L69.0654297,41.015625 L69.0654297,40.90625 L73.296875,35.5126953 L73.296875,34.6308594 L67.6503906,34.6308594 L67.6503906,35.6152344 L71.8955078,35.6152344 L71.8955078,35.7246094 L67.6435547,41.1386719 L67.6435547,42 Z M77.6308594,41.0976562 C78.8408203,41.0976562 79.7363281,40.3046875 79.7363281,39.2519531 L79.7363281,38.5751953 L77.7539062,38.7050781 C76.6328125,38.7802734 76.140625,39.1699219 76.140625,39.9082031 C76.140625,40.6601562 76.7763672,41.0976562 77.6308594,41.0976562 Z M77.4121094,42.1298828 C75.9833984,42.1298828 74.9238281,41.2822266 74.9238281,39.9355469 C74.9238281,38.6162109 75.8945312,37.8574219 77.6103516,37.7548828 L79.7363281,37.625 L79.7363281,36.9550781 C79.7363281,36.0458984 79.1689453,35.546875 78.0683594,35.546875 C77.1865234,35.546875 76.5712891,35.8818359 76.4072266,36.4628906 L75.2177734,36.4628906 C75.375,35.2802734 76.5371094,34.5009766 78.109375,34.5009766 C79.9072266,34.5009766 80.9121094,35.4238281 80.9121094,36.9550781 L80.9121094,42 L79.7910156,42 L79.7910156,40.9130859 L79.6816406,40.9130859 C79.203125,41.6992188 78.3964844,42.1298828 77.4121094,42.1298828 Z M86.75,42.1298828 C85.7246094,42.1298828 84.8496094,41.6445312 84.3847656,40.8242188 L84.2753906,40.8242188 L84.2753906,42 L83.1542969,42 L83.1542969,31.7050781 L84.3300781,31.7050781 L84.3300781,35.7929688 L84.4394531,35.7929688 C84.8427734,35 85.7382812,34.5009766 86.75,34.5009766 C88.6230469,34.5009766 89.8398438,35.9980469 89.8398438,38.3154297 C89.8398438,40.6191406 88.6162109,42.1298828 86.75,42.1298828 Z M86.4765625,35.5605469 C85.1367188,35.5605469 84.3027344,36.6132812 84.3027344,38.3154297 C84.3027344,40.0175781 85.1367188,41.0703125 86.4765625,41.0703125 C87.8232422,41.0703125 88.6230469,40.0380859 88.6230469,38.3154297 C88.6230469,36.5927734 87.8232422,35.5605469 86.4765625,35.5605469 Z M91.7539062,42 L92.9296875,42 L92.9296875,31.7050781 L91.7539062,31.7050781 L91.7539062,42 Z M98.1523438,35.5400391 C96.9765625,35.5400391 96.15625,36.4013672 96.0673828,37.7070312 L100.12793,37.7070312 C100.100586,36.4013672 99.3212891,35.5400391 98.1523438,35.5400391 Z M100.09375,40.0927734 L101.269531,40.0927734 C100.914062,41.3574219 99.7792969,42.1298828 98.1660156,42.1298828 C96.1220703,42.1298828 94.84375,40.6533203 94.84375,38.3222656 C94.84375,36.0048828 96.1425781,34.5009766 98.1660156,34.5009766 C100.155273,34.5009766 101.365234,35.9160156 101.365234,38.2060547 L101.365234,38.6572266 L96.0673828,38.6572266 L96.0673828,38.7119141 C96.1289062,40.1679688 96.9423828,41.0908203 98.1933594,41.0908203 C99.1435547,41.0908203 99.7861328,40.7421875 100.09375,40.0927734 Z M107.230469,42 L108.40625,42 L108.40625,31.7050781 L107.230469,31.7050781 L107.230469,42 Z M110.716797,42 L111.892578,42 L111.892578,34.6308594 L110.716797,34.6308594 L110.716797,42 Z M111.304688,33.1337891 C111.755859,33.1337891 112.125,32.7646484 112.125,32.3134766 C112.125,31.8623047 111.755859,31.4931641 111.304688,31.4931641 C110.853516,31.4931641 110.484375,31.8623047 110.484375,32.3134766 C110.484375,32.7646484 110.853516,33.1337891 111.304688,33.1337891 Z M114.626953,42 L115.802734,42 L115.802734,35.6152344 L117.491211,35.6152344 L117.491211,34.6308594 L115.802734,34.6308594 L115.802734,33.9472656 C115.802734,33.1201172 116.199219,32.7646484 116.90332,32.7646484 C117.135742,32.7646484 117.402344,32.7919922 117.55957,32.8261719 L117.55957,31.8417969 C117.272461,31.7939453 117.067383,31.7734375 116.834961,31.7734375 C115.413086,31.7734375 114.626953,32.4023438 114.626953,33.9130859 L114.626953,34.6308594 L113.40332,34.6308594 L113.40332,35.6152344 L114.626953,35.6152344 L114.626953,42 Z M122.139648,35.5400391 C120.963867,35.5400391 120.143555,36.4013672 120.054688,37.7070312 L124.115234,37.7070312 C124.087891,36.4013672 123.308594,35.5400391 122.139648,35.5400391 Z M124.081055,40.0927734 L125.256836,40.0927734 C124.901367,41.3574219 123.766602,42.1298828 122.15332,42.1298828 C120.109375,42.1298828 118.831055,40.6533203 118.831055,38.3222656 C118.831055,36.0048828 120.129883,34.5009766 122.15332,34.5009766 C124.142578,34.5009766 125.352539,35.9160156 125.352539,38.2060547 L125.352539,38.6572266 L120.054688,38.6572266 L120.054688,38.7119141 C120.116211,40.1679688 120.929688,41.0908203 122.180664,41.0908203 C123.130859,41.0908203 123.773438,40.7421875 124.081055,40.0927734 Z M134.088867,35.5400391 C132.913086,35.5400391 132.092773,36.4013672 132.003906,37.7070312 L136.064453,37.7070312 C136.037109,36.4013672 135.257812,35.5400391 134.088867,35.5400391 Z M136.030273,40.0927734 L137.206055,40.0927734 C136.850586,41.3574219 135.71582,42.1298828 134.102539,42.1298828 C132.058594,42.1298828 130.780273,40.6533203 130.780273,38.3222656 C130.780273,36.0048828 132.079102,34.5009766 134.102539,34.5009766 C136.091797,34.5009766 137.301758,35.9160156 137.301758,38.2060547 L137.301758,38.6572266 L132.003906,38.6572266 L132.003906,38.7119141 C132.06543,40.1679688 132.878906,41.0908203 134.129883,41.0908203 C135.080078,41.0908203 135.722656,40.7421875 136.030273,40.0927734 Z M139.147461,42 L140.323242,42 L140.323242,37.4335938 C140.323242,36.3945312 141.068359,35.5605469 142.032227,35.5605469 C142.961914,35.5605469 143.570312,36.1210938 143.570312,36.9960938 L143.570312,42 L144.746094,42 L144.746094,37.2626953 C144.746094,36.3261719 145.429688,35.5605469 146.455078,35.5605469 C147.494141,35.5605469 148.006836,36.09375 148.006836,37.1806641 L148.006836,42 L149.182617,42 L149.182617,36.9072266 C149.182617,35.3623047 148.341797,34.5009766 146.837891,34.5009766 C145.819336,34.5009766 144.978516,35.0136719 144.582031,35.7929688 L144.472656,35.7929688 C144.130859,35.0273438 143.433594,34.5009766 142.435547,34.5009766 C141.451172,34.5009766 140.712891,34.9726562 140.37793,35.7929688 L140.268555,35.7929688 L140.268555,34.6308594 L139.147461,34.6308594 L139.147461,42 Z M154.993164,42.1298828 C153.967773,42.1298828 153.092773,41.6445312 152.62793,40.8242188 L152.518555,40.8242188 L152.518555,42 L151.397461,42 L151.397461,31.7050781 L152.573242,31.7050781 L152.573242,35.7929688 L152.682617,35.7929688 C153.085938,35 153.981445,34.5009766 154.993164,34.5009766 C156.866211,34.5009766 158.083008,35.9980469 158.083008,38.3154297 C158.083008,40.6191406 156.859375,42.1298828 154.993164,42.1298828 Z M154.719727,35.5605469 C153.379883,35.5605469 152.545898,36.6132812 152.545898,38.3154297 C152.545898,40.0175781 153.379883,41.0703125 154.719727,41.0703125 C156.066406,41.0703125 156.866211,40.0380859 156.866211,38.3154297 C156.866211,36.5927734 156.066406,35.5605469 154.719727,35.5605469 Z M162.868164,35.5400391 C161.692383,35.5400391 160.87207,36.4013672 160.783203,37.7070312 L164.84375,37.7070312 C164.816406,36.4013672 164.037109,35.5400391 162.868164,35.5400391 Z M164.80957,40.0927734 L165.985352,40.0927734 C165.629883,41.3574219 164.495117,42.1298828 162.881836,42.1298828 C160.837891,42.1298828 159.55957,40.6533203 159.55957,38.3222656 C159.55957,36.0048828 160.858398,34.5009766 162.881836,34.5009766 C164.871094,34.5009766 166.081055,35.9160156 166.081055,38.2060547 L166.081055,38.6572266 L160.783203,38.6572266 L160.783203,38.7119141 C160.844727,40.1679688 161.658203,41.0908203 162.90918,41.0908203 C163.859375,41.0908203 164.501953,40.7421875 164.80957,40.0927734 Z M168.418945,32.7236328 L168.418945,34.6308594 L167.229492,34.6308594 L167.229492,35.6152344 L168.418945,35.6152344 L168.418945,40.0859375 C168.418945,41.4941406 169.027344,42.0546875 170.544922,42.0546875 C170.777344,42.0546875 171.00293,42.0273438 171.235352,41.9863281 L171.235352,40.9951172 C171.016602,41.015625 170.900391,41.0224609 170.688477,41.0224609 C169.922852,41.0224609 169.594727,40.6533203 169.594727,39.7851562 L169.594727,35.6152344 L171.235352,35.6152344 L171.235352,34.6308594 L169.594727,34.6308594 L169.594727,32.7236328 L168.418945,32.7236328 Z M173.504883,32.7236328 L173.504883,34.6308594 L172.31543,34.6308594 L172.31543,35.6152344 L173.504883,35.6152344 L173.504883,40.0859375 C173.504883,41.4941406 174.113281,42.0546875 175.630859,42.0546875 C175.863281,42.0546875 176.088867,42.0273438 176.321289,41.9863281 L176.321289,40.9951172 C176.102539,41.015625 175.986328,41.0224609 175.774414,41.0224609 C175.008789,41.0224609 174.680664,40.6533203 174.680664,39.7851562 L174.680664,35.6152344 L176.321289,35.6152344 L176.321289,34.6308594 L174.680664,34.6308594 L174.680664,32.7236328 L173.504883,32.7236328 Z M181.038086,35.5400391 C179.862305,35.5400391 179.041992,36.4013672 178.953125,37.7070312 L183.013672,37.7070312 C182.986328,36.4013672 182.207031,35.5400391 181.038086,35.5400391 Z M182.979492,40.0927734 L184.155273,40.0927734 C183.799805,41.3574219 182.665039,42.1298828 181.051758,42.1298828 C179.007812,42.1298828 177.729492,40.6533203 177.729492,38.3222656 C177.729492,36.0048828 179.02832,34.5009766 181.051758,34.5009766 C183.041016,34.5009766 184.250977,35.9160156 184.250977,38.2060547 L184.250977,38.6572266 L178.953125,38.6572266 L178.953125,38.7119141 C179.014648,40.1679688 179.828125,41.0908203 181.079102,41.0908203 C182.029297,41.0908203 182.671875,40.7421875 182.979492,40.0927734 Z M186.09668,42 L187.272461,42 L187.272461,37.4335938 C187.272461,36.3945312 188.085938,35.6425781 189.207031,35.6425781 C189.439453,35.6425781 189.863281,35.6835938 189.958984,35.7109375 L189.958984,34.5351562 C189.808594,34.5146484 189.5625,34.5009766 189.371094,34.5009766 C188.393555,34.5009766 187.545898,35.0068359 187.327148,35.7246094 L187.217773,35.7246094 L187.217773,34.6308594 L186.09668,34.6308594 L186.09668,42 Z M191.428711,42 L192.604492,42 L192.604492,37.4335938 C192.604492,36.3945312 193.349609,35.5605469 194.313477,35.5605469 C195.243164,35.5605469 195.851562,36.1210938 195.851562,36.9960938 L195.851562,42 L197.027344,42 L197.027344,37.2626953 C197.027344,36.3261719 197.710938,35.5605469 198.736328,35.5605469 C199.775391,35.5605469 200.288086,36.09375 200.288086,37.1806641 L200.288086,42 L201.463867,42 L201.463867,36.9072266 C201.463867,35.3623047 200.623047,34.5009766 199.119141,34.5009766 C198.100586,34.5009766 197.259766,35.0136719 196.863281,35.7929688 L196.753906,35.7929688 C196.412109,35.0273438 195.714844,34.5009766 194.716797,34.5009766 C193.732422,34.5009766 192.994141,34.9726562 192.65918,35.7929688 L192.549805,35.7929688 L192.549805,34.6308594 L191.428711,34.6308594 L191.428711,42 Z M206.549805,35.5400391 C205.374023,35.5400391 204.553711,36.4013672 204.464844,37.7070312 L208.525391,37.7070312 C208.498047,36.4013672 207.71875,35.5400391 206.549805,35.5400391 Z M208.491211,40.0927734 L209.666992,40.0927734 C209.311523,41.3574219 208.176758,42.1298828 206.563477,42.1298828 C204.519531,42.1298828 203.241211,40.6533203 203.241211,38.3222656 C203.241211,36.0048828 204.540039,34.5009766 206.563477,34.5009766 C208.552734,34.5009766 209.762695,35.9160156 209.762695,38.2060547 L209.762695,38.6572266 L204.464844,38.6572266 L204.464844,38.7119141 C204.526367,40.1679688 205.339844,41.0908203 206.59082,41.0908203 C207.541016,41.0908203 208.183594,40.7421875 208.491211,40.0927734 Z M211.608398,42 L212.78418,42 L212.78418,37.6386719 C212.78418,36.3466797 213.542969,35.5605469 214.71875,35.5605469 C215.894531,35.5605469 216.455078,36.1894531 216.455078,37.515625 L216.455078,42 L217.630859,42 L217.630859,37.2285156 C217.630859,35.4785156 216.708008,34.5009766 215.053711,34.5009766 C213.925781,34.5009766 213.208008,34.9794922 212.838867,35.7929688 L212.729492,35.7929688 L212.729492,34.6308594 L211.608398,34.6308594 L211.608398,42 Z M220.269531,32.7236328 L220.269531,34.6308594 L219.080078,34.6308594 L219.080078,35.6152344 L220.269531,35.6152344 L220.269531,40.0859375 C220.269531,41.4941406 220.87793,42.0546875 222.395508,42.0546875 C222.62793,42.0546875 222.853516,42.0273438 223.085938,41.9863281 L223.085938,40.9951172 C222.867188,41.015625 222.750977,41.0224609 222.539062,41.0224609 C221.773438,41.0224609 221.445312,40.6533203 221.445312,39.7851562 L221.445312,35.6152344 L223.085938,35.6152344 L223.085938,34.6308594 L221.445312,34.6308594 L221.445312,32.7236328 L220.269531,32.7236328 Z M228.814453,42 L229.990234,42 L229.990234,37.4335938 C229.990234,36.3945312 230.803711,35.6425781 231.924805,35.6425781 C232.157227,35.6425781 232.581055,35.6835938 232.676758,35.7109375 L232.676758,34.5351562 C232.526367,34.5146484 232.280273,34.5009766 232.088867,34.5009766 C231.111328,34.5009766 230.263672,35.0068359 230.044922,35.7246094 L229.935547,35.7246094 L229.935547,34.6308594 L228.814453,34.6308594 L228.814453,42 Z M237.174805,42.1298828 C235.076172,42.1298828 233.777344,40.6806641 233.777344,38.3154297 C233.777344,35.9433594 235.076172,34.5009766 237.174805,34.5009766 C239.273438,34.5009766 240.572266,35.9433594 240.572266,38.3154297 C240.572266,40.6806641 239.273438,42.1298828 237.174805,42.1298828 Z M237.174805,41.0703125 C238.569336,41.0703125 239.355469,40.0585938 239.355469,38.3154297 C239.355469,36.5654297 238.569336,35.5605469 237.174805,35.5605469 C235.780273,35.5605469 234.994141,36.5654297 234.994141,38.3154297 C234.994141,40.0585938 235.780273,41.0703125 237.174805,41.0703125 Z M246.082031,42.1298828 C245.056641,42.1298828 244.181641,41.6445312 243.716797,40.8242188 L243.607422,40.8242188 L243.607422,42 L242.486328,42 L242.486328,31.7050781 L243.662109,31.7050781 L243.662109,35.7929688 L243.771484,35.7929688 C244.174805,35 245.070312,34.5009766 246.082031,34.5009766 C247.955078,34.5009766 249.171875,35.9980469 249.171875,38.3154297 C249.171875,40.6191406 247.948242,42.1298828 246.082031,42.1298828 Z M245.808594,35.5605469 C244.46875,35.5605469 243.634766,36.6132812 243.634766,38.3154297 C243.634766,40.0175781 244.46875,41.0703125 245.808594,41.0703125 C247.155273,41.0703125 247.955078,40.0380859 247.955078,38.3154297 C247.955078,36.5927734 247.155273,35.5605469 245.808594,35.5605469 Z M254.045898,42.1298828 C251.947266,42.1298828 250.648438,40.6806641 250.648438,38.3154297 C250.648438,35.9433594 251.947266,34.5009766 254.045898,34.5009766 C256.144531,34.5009766 257.443359,35.9433594 257.443359,38.3154297 C257.443359,40.6806641 256.144531,42.1298828 254.045898,42.1298828 Z M254.045898,41.0703125 C255.44043,41.0703125 256.226562,40.0585938 256.226562,38.3154297 C256.226562,36.5654297 255.44043,35.5605469 254.045898,35.5605469 C252.651367,35.5605469 251.865234,36.5654297 251.865234,38.3154297 C251.865234,40.0585938 252.651367,41.0703125 254.045898,41.0703125 Z M259.78125,32.7236328 L259.78125,34.6308594 L258.591797,34.6308594 L258.591797,35.6152344 L259.78125,35.6152344 L259.78125,40.0859375 C259.78125,41.4941406 260.389648,42.0546875 261.907227,42.0546875 C262.139648,42.0546875 262.365234,42.0273438 262.597656,41.9863281 L262.597656,40.9951172 C262.378906,41.015625 262.262695,41.0224609 262.050781,41.0224609 C261.285156,41.0224609 260.957031,40.6533203 260.957031,39.7851562 L260.957031,35.6152344 L262.597656,35.6152344 L262.597656,34.6308594 L260.957031,34.6308594 L260.957031,32.7236328 L259.78125,32.7236328 Z M265.345703,42.0683594 C265.837891,42.0683594 266.234375,41.6650391 266.234375,41.1796875 C266.234375,40.6875 265.837891,40.2910156 265.345703,40.2910156 C264.860352,40.2910156 264.457031,40.6875 264.457031,41.1796875 C264.457031,41.6650391 264.860352,42.0683594 265.345703,42.0683594 Z" id="A-customizable-life" fill="#1F2427"></path>
                        <path d="M23.4824219,84.1992188 C25.28125,84.1992188 26.6171875,83.1972656 26.8984375,81.6445312 L25.8261719,81.6445312 C25.5566406,82.6230469 24.6601562,83.2265625 23.4824219,83.2265625 C21.8535156,83.2265625 20.8339844,81.8964844 20.8339844,79.7753906 C20.8339844,77.6542969 21.8535156,76.3183594 23.4765625,76.3183594 C24.6425781,76.3183594 25.5449219,77.0039062 25.8261719,78.09375 L26.8984375,78.09375 C26.6464844,76.4648438 25.2578125,75.3457031 23.4765625,75.3457031 C21.1796875,75.3457031 19.75,77.0449219 19.75,79.7753906 C19.75,82.5 21.1855469,84.1992188 23.4824219,84.1992188 Z M31.1347656,84.1113281 C29.3359375,84.1113281 28.2226562,82.8691406 28.2226562,80.8417969 C28.2226562,78.8085938 29.3359375,77.5722656 31.1347656,77.5722656 C32.9335938,77.5722656 34.046875,78.8085938 34.046875,80.8417969 C34.046875,82.8691406 32.9335938,84.1113281 31.1347656,84.1113281 Z M31.1347656,83.203125 C32.3300781,83.203125 33.0039062,82.3359375 33.0039062,80.8417969 C33.0039062,79.3417969 32.3300781,78.4804688 31.1347656,78.4804688 C29.9394531,78.4804688 29.265625,79.3417969 29.265625,80.8417969 C29.265625,82.3359375 29.9394531,83.203125 31.1347656,83.203125 Z M36.0507812,84 L37.0585938,84 L37.0585938,78.5273438 L38.5058594,78.5273438 L38.5058594,77.6835938 L37.0585938,77.6835938 L37.0585938,77.0976562 C37.0585938,76.3886719 37.3984375,76.0839844 38.0019531,76.0839844 C38.2011719,76.0839844 38.4296875,76.1074219 38.5644531,76.1367188 L38.5644531,75.2929688 C38.3183594,75.2519531 38.1425781,75.234375 37.9433594,75.234375 C36.7246094,75.234375 36.0507812,75.7734375 36.0507812,77.0683594 L36.0507812,77.6835938 L35.0019531,77.6835938 L35.0019531,78.5273438 L36.0507812,78.5273438 L36.0507812,84 Z M40.3925781,84 L41.4003906,84 L41.4003906,78.5273438 L42.8476562,78.5273438 L42.8476562,77.6835938 L41.4003906,77.6835938 L41.4003906,77.0976562 C41.4003906,76.3886719 41.7402344,76.0839844 42.34375,76.0839844 C42.5429688,76.0839844 42.7714844,76.1074219 42.90625,76.1367188 L42.90625,75.2929688 C42.6601562,75.2519531 42.484375,75.234375 42.2851562,75.234375 C41.0664062,75.234375 40.3925781,75.7734375 40.3925781,77.0683594 L40.3925781,77.6835938 L39.34375,77.6835938 L39.34375,78.5273438 L40.3925781,78.5273438 L40.3925781,84 Z M46.8320312,78.4628906 C45.8242188,78.4628906 45.1210938,79.2011719 45.0449219,80.3203125 L48.5253906,80.3203125 C48.5019531,79.2011719 47.8339844,78.4628906 46.8320312,78.4628906 Z M48.4960938,82.3652344 L49.5039062,82.3652344 C49.1992188,83.4492188 48.2265625,84.1113281 46.84375,84.1113281 C45.0917969,84.1113281 43.9960938,82.8457031 43.9960938,80.8476562 C43.9960938,78.8613281 45.109375,77.5722656 46.84375,77.5722656 C48.5488281,77.5722656 49.5859375,78.7851562 49.5859375,80.7480469 L49.5859375,81.1347656 L45.0449219,81.1347656 L45.0449219,81.1816406 C45.0976562,82.4296875 45.7949219,83.2207031 46.8671875,83.2207031 C47.6816406,83.2207031 48.2324219,82.921875 48.4960938,82.3652344 Z M53.6875,78.4628906 C52.6796875,78.4628906 51.9765625,79.2011719 51.9003906,80.3203125 L55.3808594,80.3203125 C55.3574219,79.2011719 54.6894531,78.4628906 53.6875,78.4628906 Z M55.3515625,82.3652344 L56.359375,82.3652344 C56.0546875,83.4492188 55.0820312,84.1113281 53.6992188,84.1113281 C51.9472656,84.1113281 50.8515625,82.8457031 50.8515625,80.8476562 C50.8515625,78.8613281 51.9648438,77.5722656 53.6992188,77.5722656 C55.4042969,77.5722656 56.4414062,78.7851562 56.4414062,80.7480469 L56.4414062,81.1347656 L51.9003906,81.1347656 L51.9003906,81.1816406 C51.953125,82.4296875 52.6503906,83.2207031 53.7226562,83.2207031 C54.5371094,83.2207031 55.0878906,82.921875 55.3515625,82.3652344 Z M57.7480469,81.7910156 C57.859375,83.25 59.0957031,84.1992188 60.8886719,84.1992188 C62.8222656,84.1992188 64.046875,83.2089844 64.046875,81.65625 C64.046875,80.4140625 63.34375,79.734375 61.5917969,79.2949219 L60.7070312,79.0605469 C59.5410156,78.7617188 59.078125,78.3808594 59.078125,77.71875 C59.078125,76.8632812 59.8222656,76.3007812 60.9472656,76.3007812 C62.0019531,76.3007812 62.7167969,76.8164062 62.8632812,77.6835938 L63.9238281,77.6835938 C63.8359375,76.3183594 62.6171875,75.3457031 60.9824219,75.3457031 C59.1953125,75.3457031 57.9941406,76.3183594 57.9941406,77.7539062 C57.9941406,78.9550781 58.65625,79.6464844 60.1855469,80.0332031 L61.2695312,80.3144531 C62.4355469,80.6074219 62.9628906,81.0644531 62.9628906,81.7851562 C62.9628906,82.6230469 62.125,83.2382812 60.9882812,83.2382812 C59.7871094,83.2382812 58.9433594,82.6757812 58.8144531,81.7910156 L57.7480469,81.7910156 Z M70.8964844,79.6171875 C70.7207031,78.4921875 69.7832031,77.5722656 68.2480469,77.5722656 C66.4785156,77.5722656 65.3535156,78.8496094 65.3535156,80.8183594 C65.3535156,82.828125 66.484375,84.1113281 68.2539062,84.1113281 C69.7714844,84.1113281 70.7148438,83.2558594 70.8964844,82.0957031 L69.8769531,82.0957031 C69.6894531,82.8105469 69.0976562,83.203125 68.2480469,83.203125 C67.1230469,83.203125 66.3964844,82.2773438 66.3964844,80.8183594 C66.3964844,79.3886719 67.1113281,78.4804688 68.2480469,78.4804688 C69.15625,78.4804688 69.7128906,78.9902344 69.8769531,79.6171875 L70.8964844,79.6171875 Z M72.3847656,84 L73.3925781,84 L73.3925781,80.0859375 C73.3925781,79.1953125 74.0898438,78.5507812 75.0507812,78.5507812 C75.25,78.5507812 75.6132812,78.5859375 75.6953125,78.609375 L75.6953125,77.6015625 C75.5664062,77.5839844 75.3554688,77.5722656 75.1914062,77.5722656 C74.3535156,77.5722656 73.6269531,78.0058594 73.4394531,78.6210938 L73.3457031,78.6210938 L73.3457031,77.6835938 L72.3847656,77.6835938 L72.3847656,84 Z M76.9785156,84 L77.9863281,84 L77.9863281,77.6835938 L76.9785156,77.6835938 L76.9785156,84 Z M77.4824219,76.4003906 C77.8691406,76.4003906 78.1855469,76.0839844 78.1855469,75.6972656 C78.1855469,75.3105469 77.8691406,74.9941406 77.4824219,74.9941406 C77.0957031,74.9941406 76.7792969,75.3105469 76.7792969,75.6972656 C76.7792969,76.0839844 77.0957031,76.4003906 77.4824219,76.4003906 Z M82.984375,77.5722656 C84.5957031,77.5722656 85.6386719,78.8554688 85.6386719,80.8417969 C85.6386719,82.8164062 84.5898438,84.1113281 82.984375,84.1113281 C82.0820312,84.1113281 81.3554688,83.71875 81.0097656,83.0507812 L80.9160156,83.0507812 L80.9160156,86.109375 L79.9082031,86.109375 L79.9082031,77.6835938 L80.8691406,77.6835938 L80.8691406,78.7382812 L80.9628906,78.7382812 C81.3671875,78.0117188 82.1230469,77.5722656 82.984375,77.5722656 Z M82.7441406,83.203125 C83.9042969,83.203125 84.5957031,82.3183594 84.5957031,80.8417969 C84.5957031,79.3652344 83.9042969,78.4804688 82.75,78.4804688 C81.6074219,78.4804688 80.8867188,79.3886719 80.8867188,80.8417969 C80.8867188,82.2890625 81.6074219,83.203125 82.7441406,83.203125 Z M87.6425781,76.0488281 L87.6425781,77.6835938 L86.6230469,77.6835938 L86.6230469,78.5273438 L87.6425781,78.5273438 L87.6425781,82.359375 C87.6425781,83.5664062 88.1640625,84.046875 89.4648438,84.046875 C89.6640625,84.046875 89.8574219,84.0234375 90.0566406,83.9882812 L90.0566406,83.1386719 C89.8691406,83.15625 89.7695312,83.1621094 89.5878906,83.1621094 C88.9316406,83.1621094 88.6503906,82.8457031 88.6503906,82.1015625 L88.6503906,78.5273438 L90.0566406,78.5273438 L90.0566406,77.6835938 L88.6503906,77.6835938 L88.6503906,76.0488281 L87.6425781,76.0488281 Z" id="CoffeeScript" fill="#1F2427"></path>
                        <path d="M138.964844,84 L140.019531,84 L140.019531,75.5449219 L138.970703,75.5449219 L136.720703,77.1621094 L136.720703,78.2753906 L138.871094,76.7167969 L138.964844,76.7167969 L138.964844,84 Z M142.486328,77.9238281 L142.486328,77.9296875 L143.505859,77.9296875 L143.505859,77.9238281 C143.505859,76.9277344 144.173828,76.265625 145.164062,76.265625 C146.095703,76.265625 146.816406,76.9160156 146.816406,77.7597656 C146.816406,78.4394531 146.552734,78.8964844 145.462891,80.0800781 L142.539062,83.2734375 L142.539062,84 L148.011719,84 L148.011719,83.0507812 L144.050781,83.0507812 L144.050781,82.9570312 L146.083984,80.7714844 C147.472656,79.2832031 147.871094,78.5976562 147.871094,77.71875 C147.871094,76.3769531 146.710938,75.3457031 145.193359,75.3457031 C143.623047,75.3457031 142.486328,76.4238281 142.486328,77.9238281 Z M150.513672,86.1503906 L151.380859,82.8164062 L150.197266,82.8164062 L149.634766,86.1503906 L150.513672,86.1503906 Z M153.296875,77.9238281 L153.296875,77.9296875 L154.316406,77.9296875 L154.316406,77.9238281 C154.316406,76.9277344 154.984375,76.265625 155.974609,76.265625 C156.90625,76.265625 157.626953,76.9160156 157.626953,77.7597656 C157.626953,78.4394531 157.363281,78.8964844 156.273438,80.0800781 L153.349609,83.2734375 L153.349609,84 L158.822266,84 L158.822266,83.0507812 L154.861328,83.0507812 L154.861328,82.9570312 L156.894531,80.7714844 C158.283203,79.2832031 158.681641,78.5976562 158.681641,77.71875 C158.681641,76.3769531 157.521484,75.3457031 156.003906,75.3457031 C154.433594,75.3457031 153.296875,76.4238281 153.296875,77.9238281 Z M162.619141,84 L163.673828,84 L163.673828,75.5449219 L162.625,75.5449219 L160.375,77.1621094 L160.375,78.2753906 L162.525391,76.7167969 L162.619141,76.7167969 L162.619141,84 Z M168.982422,84.1992188 C170.734375,84.1992188 171.935547,83.0273438 171.935547,81.3105469 C171.935547,79.6464844 170.810547,78.4804688 169.205078,78.4804688 C168.425781,78.4804688 167.828125,78.7207031 167.417969,79.2011719 L167.324219,79.2011719 L167.564453,76.4882812 L171.455078,76.4882812 L171.455078,75.5449219 L166.738281,75.5449219 L166.275391,80.3378906 L167.265625,80.3378906 C167.611328,79.734375 168.244141,79.3886719 169.011719,79.3886719 C170.119141,79.3886719 170.880859,80.1796875 170.880859,81.3398438 C170.880859,82.5 170.125,83.2734375 168.994141,83.2734375 C167.998047,83.2734375 167.271484,82.6640625 167.177734,81.75 L166.140625,81.75 C166.234375,83.2089844 167.382812,84.1992188 168.982422,84.1992188 Z" id="12,215" fill="#1F2427"></path>
                        <path d="M219.890625,77.9238281 L219.890625,77.9296875 L220.910156,77.9296875 L220.910156,77.9238281 C220.910156,76.9277344 221.578125,76.265625 222.568359,76.265625 C223.5,76.265625 224.220703,76.9160156 224.220703,77.7597656 C224.220703,78.4394531 223.957031,78.8964844 222.867188,80.0800781 L219.943359,83.2734375 L219.943359,84 L225.416016,84 L225.416016,83.0507812 L221.455078,83.0507812 L221.455078,82.9570312 L223.488281,80.7714844 C224.876953,79.2832031 225.275391,78.5976562 225.275391,77.71875 C225.275391,76.3769531 224.115234,75.3457031 222.597656,75.3457031 C221.027344,75.3457031 219.890625,76.4238281 219.890625,77.9238281 Z M227.917969,86.1503906 L228.785156,82.8164062 L227.601562,82.8164062 L227.039062,86.1503906 L227.917969,86.1503906 Z M233.642578,84.1992188 C231.849609,84.1992188 230.595703,83.1855469 230.595703,81.7382812 C230.595703,80.6367188 231.292969,79.78125 232.353516,79.5820312 L232.353516,79.4882812 C231.492188,79.2539062 230.941406,78.5214844 230.941406,77.6015625 C230.941406,76.2832031 232.060547,75.3457031 233.642578,75.3457031 C235.224609,75.3457031 236.34375,76.2832031 236.34375,77.6015625 C236.34375,78.5273438 235.804688,79.2480469 234.931641,79.4882812 L234.931641,79.5820312 C235.992188,79.78125 236.689453,80.6367188 236.689453,81.7382812 C236.689453,83.1855469 235.435547,84.1992188 233.642578,84.1992188 Z M233.642578,83.296875 C234.814453,83.296875 235.623047,82.6289062 235.623047,81.6621094 C235.623047,80.6953125 234.814453,80.0273438 233.642578,80.0273438 C232.470703,80.0273438 231.662109,80.6953125 231.662109,81.6621094 C231.662109,82.6289062 232.470703,83.296875 233.642578,83.296875 Z M233.642578,79.1367188 C234.638672,79.1367188 235.306641,78.5625 235.306641,77.7011719 C235.306641,76.828125 234.644531,76.2480469 233.642578,76.2480469 C232.640625,76.2480469 231.978516,76.828125 231.978516,77.7011719 C231.978516,78.5625 232.646484,79.1367188 233.642578,79.1367188 Z M242.279297,84 L242.279297,82.2480469 L238.160156,82.2480469 L238.160156,81.2871094 C238.916016,79.9453125 240.257812,77.8242188 241.78125,75.5449219 L243.310547,75.5449219 L243.310547,81.3046875 L244.511719,81.3046875 L244.511719,82.2480469 L243.310547,82.2480469 L243.310547,84 L242.279297,84 Z M239.238281,81.2402344 L239.238281,81.3105469 L242.285156,81.3105469 L242.285156,76.5234375 L242.214844,76.5234375 C241.347656,77.7832031 240.246094,79.5292969 239.238281,81.2402344 Z M249.029297,84.1992188 C247.236328,84.1992188 245.982422,83.1855469 245.982422,81.7382812 C245.982422,80.6367188 246.679688,79.78125 247.740234,79.5820312 L247.740234,79.4882812 C246.878906,79.2539062 246.328125,78.5214844 246.328125,77.6015625 C246.328125,76.2832031 247.447266,75.3457031 249.029297,75.3457031 C250.611328,75.3457031 251.730469,76.2832031 251.730469,77.6015625 C251.730469,78.5273438 251.191406,79.2480469 250.318359,79.4882812 L250.318359,79.5820312 C251.378906,79.78125 252.076172,80.6367188 252.076172,81.7382812 C252.076172,83.1855469 250.822266,84.1992188 249.029297,84.1992188 Z M249.029297,83.296875 C250.201172,83.296875 251.009766,82.6289062 251.009766,81.6621094 C251.009766,80.6953125 250.201172,80.0273438 249.029297,80.0273438 C247.857422,80.0273438 247.048828,80.6953125 247.048828,81.6621094 C247.048828,82.6289062 247.857422,83.296875 249.029297,83.296875 Z M249.029297,79.1367188 C250.025391,79.1367188 250.693359,78.5625 250.693359,77.7011719 C250.693359,76.828125 250.03125,76.2480469 249.029297,76.2480469 C248.027344,76.2480469 247.365234,76.828125 247.365234,77.7011719 C247.365234,78.5625 248.033203,79.1367188 249.029297,79.1367188 Z" id="2,848" fill="#1F2427"></path>
                        <path d="M208,73 C206.89,73 206,73.89 206,75 C206,75.73 206.41,76.38 207,76.72 L207,78 L205,80 L203,78 L203,76.72 C203.59,76.38 204,75.74 204,75 C204,73.89 203.11,73 202,73 C200.89,73 200,73.89 200,75 C200,75.73 200.41,76.38 201,76.72 L201,78.5 L204,81.5 L204,83.28 C203.41,83.62 203,84.26 203,85 C203,86.11 203.89,87 205,87 C206.11,87 207,86.11 207,85 C207,84.27 206.59,83.62 206,83.28 L206,81.5 L209,78.5 L209,76.72 C209.59,76.38 210,75.74 210,75 C210,73.89 209.11,73 208,73 L208,73 Z M202,76.2 C201.34,76.2 200.8,75.65 200.8,75 C200.8,74.35 201.35,73.8 202,73.8 C202.65,73.8 203.2,74.35 203.2,75 C203.2,75.65 202.65,76.2 202,76.2 L202,76.2 Z M205,86.2 C204.34,86.2 203.8,85.65 203.8,85 C203.8,84.35 204.35,83.8 205,83.8 C205.65,83.8 206.2,84.35 206.2,85 C206.2,85.65 205.65,86.2 205,86.2 L205,86.2 Z M208,76.2 C207.34,76.2 206.8,75.65 206.8,75 C206.8,74.35 207.35,73.8 208,73.8 C208.65,73.8 209.2,74.35 209.2,75 C209.2,75.65 208.65,76.2 208,76.2 L208,76.2 Z" id="Shape-Copy" fill="#BCC1C8"></path>
                        <circle id="Oval-4-Copy" fill="#0366D6" cx="7" cy="80" r="6"></circle>
                        <polygon id="Shape-Copy-2" fill="#BCC1C8" points="129 77.3846154 123.75 76.6953846 121.5 72 119.25 76.6953846 114 77.3846154 117.857143 80.8953846 116.860714 86 121.5 83.4907692 126.139286 86 125.142857 80.8953846"></polygon>
                        <path d="M11.8369141,8.20214844 L11.8369141,6.69970703 L6.86474609,6.69970703 L6.86474609,8.37646484 L9.74511719,8.37646484 L9.73681641,8.62548828 C9.70361328,10.2773438 8.45849609,11.3896484 6.63232422,11.3896484 C4.49902344,11.3896484 3.16259766,9.71289062 3.16259766,6.99023438 C3.16259766,4.30078125 4.47412109,2.63232422 6.56591797,2.63232422 C8.1015625,2.63232422 9.17236328,3.38769531 9.60400391,4.74902344 L11.7373047,4.74902344 C11.3554688,2.30029297 9.33007812,0.723144531 6.56591797,0.723144531 C3.15429688,0.723144531 0.971191406,3.171875 0.971191406,7.00683594 C0.971191406,10.8916016 3.12939453,13.2988281 6.59912109,13.2988281 C9.79492188,13.2988281 11.8369141,11.3149414 11.8369141,8.20214844 Z M14.0079297,13 L16.0582227,13 L16.0582227,3.91894531 L14.0079297,3.91894531 L14.0079297,13 Z M15.0289258,2.44140625 C15.7842969,2.44140625 16.2989453,1.95996094 16.2989453,1.30419922 C16.2989453,0.6484375 15.7842969,0.166992188 15.0289258,0.166992188 C14.2818555,0.166992188 13.7589063,0.6484375 13.7589063,1.30419922 C13.7589063,1.95996094 14.2818555,2.44140625 15.0289258,2.44140625 Z M19.1423242,1.69433594 L19.1423242,3.97705078 L17.7062891,3.97705078 L17.7062891,5.62060547 L19.1423242,5.62060547 L19.1423242,10.5761719 C19.1423242,12.3359375 19.9724023,13.0415039 22.0558984,13.0415039 C22.4543359,13.0415039 22.8361719,13 23.135,12.9418945 L23.135,11.331543 C22.8859766,11.3564453 22.7282617,11.3730469 22.4377344,11.3730469 C21.5744531,11.3730469 21.1926172,10.9746094 21.1926172,10.078125 L21.1926172,5.62060547 L23.135,5.62060547 L23.135,3.97705078 L21.1926172,3.97705078 L21.1926172,1.69433594 L19.1423242,1.69433594 Z M35.3914648,13 L35.3914648,1.02197266 L33.2581641,1.02197266 L33.2581641,5.97753906 L27.4310156,5.97753906 L27.4310156,1.02197266 L25.2894141,1.02197266 L25.2894141,13 L27.4310156,13 L27.4310156,7.82861328 L33.2581641,7.82861328 L33.2581641,13 L35.3914648,13 Z M45.9130664,3.91894531 L43.8544727,3.91894531 L43.8544727,9.20654297 C43.8544727,10.5512695 43.1240039,11.3730469 41.7875781,11.3730469 C40.5590625,11.3730469 39.9863086,10.6923828 39.9863086,9.30615234 L39.9863086,3.91894531 L37.9277148,3.91894531 L37.9277148,9.82080078 C37.9277148,11.9458008 39.0898242,13.1826172 41.0737109,13.1826172 C42.4599414,13.1826172 43.348125,12.5932617 43.7880664,11.5556641 L43.9291797,11.5556641 L43.9291797,13 L45.9130664,13 L45.9130664,3.91894531 Z M53.3633789,13.1494141 C52.0933594,13.1494141 51.0391602,12.5600586 50.5245117,11.5639648 L50.3833984,11.5639648 L50.3833984,13 L48.3995117,13 L48.3995117,0.407714844 L50.4581055,0.407714844 L50.4581055,5.36328125 L50.5992188,5.36328125 C51.0723633,4.37548828 52.1182617,3.76953125 53.3633789,3.76953125 C55.6626953,3.76953125 57.0904297,5.55419922 57.0904297,8.45947266 C57.0904297,11.3481445 55.6543945,13.1494141 53.3633789,13.1494141 Z M52.715918,5.52099609 C51.3130859,5.52099609 50.4249023,6.64990234 50.4249023,8.45947266 C50.4249023,10.269043 51.3047852,11.3979492 52.715918,11.3979492 C54.1270508,11.3979492 54.9737305,10.2856445 54.9737305,8.45947266 C54.9737305,6.63330078 54.11875,5.52099609 52.715918,5.52099609 Z M64.4622461,15.5068359 L68.0066797,1.02197266 L66.1058008,1.02197266 L62.5945703,15.5068359 L64.4622461,15.5068359 Z M73.4361133,13 L75.5030078,13 L76.6651172,7.53808594 C76.9224414,6.35107422 77.7608203,5.49609375 78.9727344,5.49609375 C80.0186328,5.49609375 80.6328906,6.11035156 80.6328906,7.05664063 C80.6328906,7.29736328 80.5913867,7.54638672 80.5332813,7.81201172 L79.4375781,13 L81.5044727,13 L82.666582,7.47167969 C82.7495898,7.08984375 82.7910938,6.73291016 82.7910938,6.40087891 C82.7910938,4.94824219 81.7617969,3.75292969 80.010332,3.75292969 C78.6573047,3.75292969 77.8438281,4.42529297 77.279375,5.28027344 L77.1382617,5.28027344 L78.1758594,0.44921875 L76.1089648,0.44921875 L73.4361133,13 Z M93.6447266,3.91894531 L91.577832,3.91894531 L90.4323242,9.27294922 C90.1666992,10.5263672 89.3117187,11.3813477 88.0915039,11.3813477 C87.0456055,11.3813477 86.5392578,10.8833008 86.5392578,9.86230469 C86.5392578,9.6796875 86.5807617,9.30615234 86.6305664,9.04052734 L87.7179687,3.91894531 L85.6427734,3.91894531 L84.5055664,9.37255859 C84.4308594,9.76269531 84.3810547,10.2607422 84.3810547,10.534668 C84.3810547,12.1035156 85.4767578,13.1826172 87.1286133,13.1826172 C88.4318359,13.1826172 89.3449219,12.5766602 89.8761719,11.6801758 L90.0172852,11.6801758 L89.7267578,13 L91.7189453,13 L93.6447266,3.91894531 Z M99.351875,13.1494141 C98.0818555,13.1494141 96.9529492,12.4106445 96.620918,11.3481445 L96.4798047,11.3481445 L96.1145703,13 L94.1306836,13 L96.8035352,0.407714844 L98.8621289,0.407714844 L97.8577344,5.18066406 L98.0071484,5.17236328 C98.629707,4.27587891 99.5593945,3.76953125 100.779609,3.76953125 C102.59748,3.76953125 103.925605,5.17236328 103.925605,7.25585938 C103.925605,10.6176758 101.925117,13.1494141 99.351875,13.1494141 Z M98.9783398,11.3730469 C100.563789,11.3730469 101.784004,9.75439453 101.784004,7.59619141 C101.784004,6.25146484 101.045234,5.50439453 99.9163281,5.50439453 C98.3142773,5.50439453 97.0442578,7.18115234 97.0442578,9.23144531 C97.0442578,10.5844727 97.8245312,11.3730469 98.9783398,11.3730469 Z M107.499453,9.18164062 C107.499453,10.5678711 108.254824,11.4560547 109.433535,11.4560547 C110.902773,11.4560547 112.106387,9.82080078 112.106387,7.83691406 C112.106387,6.35107422 111.40082,5.46289062 110.23041,5.46289062 C108.63666,5.46289062 107.499453,7.0234375 107.499453,9.18164062 Z M109.27582,13.1826172 C106.926699,13.1826172 105.34125,11.6137695 105.34125,9.28955078 C105.34125,6.07714844 107.449648,3.73632813 110.354922,3.73632813 C112.704043,3.73632813 114.272891,5.28857422 114.272891,7.62939453 C114.272891,10.8168945 112.147891,13.1826172 109.27582,13.1826172 Z M118.784727,13.0415039 C119.24957,13.0415039 119.681211,13.0166016 119.946836,12.9501953 L120.270566,11.3564453 C120.079648,11.3813477 119.855527,11.3979492 119.589902,11.3979492 C118.909238,11.3979492 118.535703,11.1323242 118.535703,10.5263672 C118.535703,10.3603516 118.560605,10.1445313 118.618711,9.89550781 L119.531797,5.62060547 L121.499082,5.62060547 L121.856016,3.97705078 L119.872129,3.97705078 L120.361875,1.69433594 L118.28668,1.69433594 L117.813535,3.97705078 L116.327695,3.97705078 L115.987363,5.62060547 L117.464902,5.62060547 L116.443906,10.3603516 C116.385801,10.6425781 116.352598,10.9165039 116.352598,11.1489258 C116.352598,12.3774414 117.348691,13.0415039 118.784727,13.0415039 Z" id="GitHub-/-hubot" fill="#0366D6"></path>
                    </g>
                </g>
                <g id="top" transform="translate(42.000000, 0.000000)">
                    <g id="Rectangle-9-Copy-2">
                        <use fill="black" fill-opacity="1" filter="url(#filter-7)" xlink:href="#path-6"></use>
                        <use stroke="#E3E9EE" mask="url(#mask-8)" stroke-width="2" fill="#FFFFFF" fill-rule="evenodd" xlink:href="#path-6"></use>
                    </g>
                    <path d="M33.7,30.3 L29.89,26.47 C30.6149466,25.4584628 31.0032794,24.2444856 31,23 C31,19.69 28.31,17 25,17 C21.69,17 19,19.69 19,23 C19,26.31 21.69,29 25,29 C26.3,29 27.48,28.59 28.47,27.89 L32.3,31.7 C32.49,31.9 32.75,32 33,32 C33.25,32 33.52,31.91 33.7,31.7 C33.8872281,31.5131554 33.992444,31.2595095 33.992444,30.995 C33.992444,30.7304905 33.8872281,30.4768446 33.7,30.29 L33.7,30.3 L33.7,30.3 Z M25,27.7 C22.41,27.7 20.3,25.59 20.3,23 C20.3,20.41 22.41,18.3 25,18.3 C27.59,18.3 29.7,20.41 29.7,23 C29.7,25.59 27.59,27.7 25,27.7 L25,27.7 Z" id="Shape" fill="#BCC1C8"></path>
                    <path d="M56.0898438,30 L56.0898438,18.0219727 L54.5957031,18.0219727 L54.5957031,23.2016602 L48.0214844,23.2016602 L48.0214844,18.0219727 L46.5273438,18.0219727 L46.5273438,30 L48.0214844,30 L48.0214844,24.5463867 L54.5957031,24.5463867 L54.5957031,30 L56.0898438,30 Z M65.9001953,21.0517578 L64.4724609,21.0517578 L64.4724609,26.3476562 C64.4724609,27.9165039 63.6091797,28.8544922 62.0320312,28.8544922 C60.6042969,28.8544922 60.0066406,28.1074219 60.0066406,26.4970703 L60.0066406,21.0517578 L58.5789062,21.0517578 L58.5789062,26.8457031 C58.5789062,28.9624023 59.6248047,30.1577148 61.6335937,30.1577148 C63.0032226,30.1577148 63.9578125,29.5932617 64.4060547,28.597168 L64.5388672,28.597168 L64.5388672,30 L65.9001953,30 L65.9001953,21.0517578 Z M72.7388672,30.1577148 C71.49375,30.1577148 70.43125,29.5683594 69.8667969,28.5722656 L69.7339844,28.5722656 L69.7339844,30 L68.3726562,30 L68.3726562,17.4990234 L69.8003906,17.4990234 L69.8003906,22.4628906 L69.9332031,22.4628906 C70.4229492,21.5 71.5103515,20.894043 72.7388672,20.894043 C75.0132812,20.894043 76.4908203,22.7119141 76.4908203,25.5258789 C76.4908203,28.3232422 75.0049804,30.1577148 72.7388672,30.1577148 Z M72.4068359,22.1806641 C70.7798828,22.1806641 69.7671875,23.4589844 69.7671875,25.5258789 C69.7671875,27.5927734 70.7798828,28.8710938 72.4068359,28.8710938 C74.0420898,28.8710938 75.0132812,27.6176758 75.0132812,25.5258789 C75.0132812,23.434082 74.0420898,22.1806641 72.4068359,22.1806641 Z M82.1092773,30.1577148 C79.5609375,30.1577148 77.983789,28.3979492 77.983789,25.5258789 C77.983789,22.6455078 79.5609375,20.894043 82.1092773,20.894043 C84.6576172,20.894043 86.2347656,22.6455078 86.2347656,25.5258789 C86.2347656,28.3979492 84.6576172,30.1577148 82.1092773,30.1577148 Z M82.1092773,28.8710938 C83.8026367,28.8710938 84.7572265,27.6425781 84.7572265,25.5258789 C84.7572265,23.4008789 83.8026367,22.1806641 82.1092773,22.1806641 C80.4159179,22.1806641 79.4613281,23.4008789 79.4613281,25.5258789 C79.4613281,27.6425781 80.4159179,28.8710938 82.1092773,28.8710938 Z M88.7736328,18.7358398 L88.7736328,21.0517578 L87.3292968,21.0517578 L87.3292968,22.2470703 L88.7736328,22.2470703 L88.7736328,27.6757812 C88.7736328,29.3857422 89.5124023,30.0664062 91.3551757,30.0664062 C91.6374023,30.0664062 91.9113281,30.0332031 92.1935546,29.9833984 L92.1935546,28.7797852 C91.9279296,28.8046875 91.7868164,28.8129883 91.5294921,28.8129883 C90.5998046,28.8129883 90.2013671,28.3647461 90.2013671,27.3105469 L90.2013671,22.2470703 L92.1935546,22.2470703 L92.1935546,21.0517578 L90.2013671,21.0517578 L90.2013671,18.7358398 L88.7736328,18.7358398 Z" id="Hubot" fill="#1F2427"></path>
                    <g id="Rectangle-9-Copy-3">
                        <use fill="black" fill-opacity="1" filter="url(#filter-11)" xlink:href="#path-10"></use>
                        <use stroke="#D7DADF" mask="url(#mask-12)" stroke-width="2" fill="url(#linearGradient-9)" fill-rule="evenodd" xlink:href="#path-10"></use>
                    </g>
                    <g id="text" transform="translate(293.000000, 18.000000)" fill="#1F2427">
                        <path d="M5.41259766,12 L4.09423828,12 L4.09423828,2.61767578 L0.688476562,2.61767578 L0.688476562,1.43115234 L8.81835938,1.43115234 L8.81835938,2.61767578 L5.41259766,2.61767578 L5.41259766,12 Z M10.0650391,14.8564453 C9.89658204,14.8564453 9.67685547,14.8417969 9.50107422,14.8125 L9.50107422,13.7358398 C9.65488282,13.7651367 9.85263672,13.7724609 10.028418,13.7724609 C10.7535156,13.7724609 11.1490234,13.4282227 11.4786133,12.4760742 L11.6250977,12.0073242 L8.70273438,4.10449219 L10.0650391,4.10449219 L12.2330078,10.6010742 L12.3501953,10.6010742 L14.5108398,4.10449219 L15.8511719,4.10449219 L12.7676758,12.4833984 C12.0938477,14.3144531 11.4639648,14.8564453 10.0650391,14.8564453 Z M21.030957,3.96533203 C23.0451172,3.96533203 24.3488281,5.56933594 24.3488281,8.05224609 C24.3488281,10.5205078 23.037793,12.1391602 21.030957,12.1391602 C19.9030274,12.1391602 18.9948242,11.6484375 18.5626953,10.8134766 L18.4455078,10.8134766 L18.4455078,14.6367188 L17.1857422,14.6367188 L17.1857422,4.10449219 L18.3869141,4.10449219 L18.3869141,5.42285156 L18.5041016,5.42285156 C19.0094727,4.51464844 19.9542969,3.96533203 21.030957,3.96533203 Z M20.7306641,11.0039062 C22.1808594,11.0039062 23.0451172,9.89794922 23.0451172,8.05224609 C23.0451172,6.20654297 22.1808594,5.10058594 20.7379883,5.10058594 C19.3097656,5.10058594 18.4088867,6.23583984 18.4088867,8.05224609 C18.4088867,9.86132812 19.3097656,11.0039062 20.7306641,11.0039062 Z M29.1257813,5.07861328 C27.8660156,5.07861328 26.9871094,6.00146484 26.8918945,7.40039062 L31.2424805,7.40039062 C31.2131836,6.00146484 30.3782227,5.07861328 29.1257813,5.07861328 Z M31.2058594,9.95654297 L32.465625,9.95654297 C32.0847656,11.3115234 30.8689453,12.1391602 29.1404297,12.1391602 C26.9504883,12.1391602 25.5808594,10.5571289 25.5808594,8.05957031 C25.5808594,5.57666016 26.972461,3.96533203 29.1404297,3.96533203 C31.2717774,3.96533203 32.5681641,5.48144531 32.5681641,7.93505859 L32.5681641,8.41845703 L26.8918945,8.41845703 L26.8918945,8.47705078 C26.9578125,10.0371094 27.8293945,11.0258789 29.1697266,11.0258789 C30.187793,11.0258789 30.8762695,10.6523438 31.2058594,9.95654297 Z M35.2357422,12.0732422 C35.763086,12.0732422 36.1878906,11.6411133 36.1878906,11.1210938 C36.1878906,10.59375 35.763086,10.1689453 35.2357422,10.1689453 C34.7157227,10.1689453 34.2835938,10.59375 34.2835938,11.1210938 C34.2835938,11.6411133 34.7157227,12.0732422 35.2357422,12.0732422 Z M35.2357422,6.44091797 C35.763086,6.44091797 36.1878906,6.00878906 36.1878906,5.48876953 C36.1878906,4.96142578 35.763086,4.53662109 35.2357422,4.53662109 C34.7157227,4.53662109 34.2835938,4.96142578 34.2835938,5.48876953 C34.2835938,6.00878906 34.7157227,6.44091797 35.2357422,6.44091797 Z M49.1182618,12 L48.2247071,9.29736328 L44.3355469,9.29736328 L43.4273438,12 L41.5157227,12 L45.2657227,1.43115234 L47.3897461,1.43115234 L51.1470703,12 L49.1182618,12 Z M46.2251953,3.4453125 L44.775,7.80322266 L47.7852539,7.80322266 L46.3497071,3.4453125 L46.2251953,3.4453125 Z M52.4962891,12 L54.3126954,12 L54.3126954,0.889160156 L52.4962891,0.889160156 L52.4962891,12 Z M56.328418,12 L58.1448243,12 L58.1448243,0.889160156 L56.328418,0.889160156 L56.328418,12 Z" id="Type:-All"></path>
                        <polygon id="Shape" points="66 5 70.1108649 9.32432432 74.2217298 5"></polygon>
                    </g>
                </g>
            </g>
        </g>
    </g>
</svg>