<svg xmlns="http://www.w3.org/2000/svg" viewBox="0 0 577.78 459.7"><defs><style>.cls-1{isolation:isolate}.cls-2{fill:#e5e7ea}.cls-11,.cls-12,.cls-13,.cls-14,.cls-15,.cls-3,.cls-7{fill:none}.cls-11,.cls-12,.cls-13,.cls-3,.cls-5{stroke:#252c34;stroke-width:3.38px}.cls-11,.cls-12,.cls-13,.cls-14,.cls-15,.cls-3,.cls-5,.cls-7{stroke-linecap:round}.cls-3,.cls-5{stroke-linejoin:round}.cls-4{fill:#eceef0}.cls-5{fill:#fff}.cls-6{fill:#38b55d}.cls-7{stroke:#fff}.cls-11,.cls-12,.cls-13,.cls-14,.cls-15,.cls-7{stroke-miterlimit:10}.cls-14,.cls-15,.cls-7{stroke-width:11.25px}.cls-8{fill:#009b72}.cls-9{fill:#7fc142}.cls-10{fill:#057c57}.cls-12{stroke-dasharray:8.53 12.8}.cls-13{stroke-dasharray:8.37 12.55}.cls-14,.cls-15{stroke:#7fc142;mix-blend-mode:multiply}.cls-15{stroke:#009b72}</style></defs><title>home-illo-business</title><g class="cls-1"><g id="Layer_1" data-name="Layer 1"><path class="cls-2" d="M213.89 0l-2.54 17.04 16.03-6.32L213.89 0zM99.16 361.82l-1.86 12.34 11.62-4.56-9.76-7.78zM522.46 237.33l-1.86 12.34 11.62-4.56-9.76-7.78zM40.87 77.02L19.68 73.1l7.2 20.31 13.99-16.39z"/><path class="cls-3" d="M155.24 458.01h302.38"/><path class="cls-4" d="M793.74 2105.13v217.23h46.79v-232.17a119.29 119.29 0 0 0-119.29-119.29s72.5 11.47 72.5 134.23z" transform="translate(-424.98 -1864.72)"/><path class="cls-3" d="M721.24 1970.9A119.29 119.29 0 0 0 602 2090.19v232.17h238.53v-232.17a119.29 119.29 0 0 0-119.29-119.29z" transform="translate(-424.98 -1864.72)"/><path class="cls-5" d="M345.07 458.01h-89.88l-8.09-67.07h106.07l-8.1 67.07z"/><path class="cls-6" d="M690.42 2147.74h-54.51a5.65 5.65 0 0 1 0-11.29h54.52a5.65 5.65 0 0 1-.01 11.29z" transform="translate(-424.98 -1864.72)"/><path class="cls-7" d="M377.12 266.22l-33.61 33.6"/><path class="cls-3" d="M642.26 2144.85v34.07a14.92 14.92 0 0 0 14.92 14.92h104.2M642.26 2163.87c18.3 0 46.52-9.19 46.52-49.87M761.38 2177.4h17.54a21 21 0 0 0 21-21v-34.3" transform="translate(-424.98 -1864.72)"/><path class="cls-6" d="M725.63 2192.91h-54.52a5.65 5.65 0 1 1 0-11.29h54.52a5.65 5.65 0 1 1 0 11.29z" transform="translate(-424.98 -1864.72)"/><path class="cls-8" d="M737 2034.82h-46.38a5.65 5.65 0 1 1 0-11.29H737a5.65 5.65 0 1 1 0 11.29zM765.92 2034.82h-14a5.65 5.65 0 1 1 0-11.29h14a5.65 5.65 0 1 1 0 11.29z" transform="translate(-424.98 -1864.72)"/><path class="cls-7" d="M331.83 164.45l-22.36 22.37M280.38 277.4l-22.36 22.36M206.15 299.06l34.78 34.78"/><path class="cls-8" d="M816.16 2136.45h-30.23a5.65 5.65 0 1 1 0-11.29h30.23a5.65 5.65 0 1 1 0 11.29z" transform="translate(-424.98 -1864.72)"/><path class="cls-9" d="M756.54 2023.53H702a5.65 5.65 0 0 1 0-11.29h54.52a5.65 5.65 0 0 1 .02 11.29zM810.6 2091.28h-14a5.65 5.65 0 0 1 0-11.29h14a5.65 5.65 0 0 1 0 11.29z" transform="translate(-424.98 -1864.72)"/><path class="cls-8" d="M800.08 2125.43h-6.34a5.65 5.65 0 1 1 0-11.29h6.34a5.65 5.65 0 1 1 0 11.29z" transform="translate(-424.98 -1864.72)"/><path class="cls-6" d="M707.94 2113.87h-38.32a5.65 5.65 0 1 1 0-11.29h38.32a5.65 5.65 0 1 1 0 11.29z" transform="translate(-424.98 -1864.72)"/><path class="cls-8" d="M703.43 2125.16h-14a5.65 5.65 0 0 1 0-11.29h14a5.65 5.65 0 0 1 0 11.29zM641.18 2125.43h-14a5.65 5.65 0 1 1 0-11.29h14a5.65 5.65 0 1 1 0 11.29z" transform="translate(-424.98 -1864.72)"/><path class="cls-8" d="M690.76 2125.16h-30.22a5.65 5.65 0 0 1 0-11.29h30.23a5.65 5.65 0 0 1-.01 11.29z" transform="translate(-424.98 -1864.72)"/><path class="cls-10" d="M692.72 2125.16h-9.17a5.65 5.65 0 0 1 0-11.29h9.17a5.65 5.65 0 0 1 0 11.29z" transform="translate(-424.98 -1864.72)"/><path class="cls-6" d="M738.33 2068.7h-54.52a5.65 5.65 0 1 1 0-11.29h54.52a5.65 5.65 0 1 1 0 11.29z" transform="translate(-424.98 -1864.72)"/><path class="cls-8" d="M814 2125.43h-.27a5.65 5.65 0 1 1 0-11.29h.27a5.65 5.65 0 1 1 0 11.29zM675.75 2034.82h-.27a5.65 5.65 0 1 1 0-11.29h.27a5.65 5.65 0 1 1 0 11.29z" transform="translate(-424.98 -1864.72)"/><path class="cls-9" d="M793 2080h-54.55a5.65 5.65 0 1 1 0-11.29H793a5.65 5.65 0 1 1 0 11.29zM682.67 2113.87h-14a5.65 5.65 0 1 1 0-11.29h14a5.65 5.65 0 1 1 0 11.29z" transform="translate(-424.98 -1864.72)"/><path class="cls-10" d="M755.13 2057.4h-25.37a5.65 5.65 0 0 1 0-11.29h25.37a5.65 5.65 0 0 1 0 11.29z" transform="translate(-424.98 -1864.72)"/><path class="cls-9" d="M749.46 2113.87h-14a5.65 5.65 0 1 1 0-11.29h14a5.65 5.65 0 1 1 0 11.29z" transform="translate(-424.98 -1864.72)"/><path class="cls-3" d="M717.64 2032.39v59a36.74 36.74 0 0 0 10.76 26l32.68 32.61" transform="translate(-424.98 -1864.72)"/><path class="cls-8" d="M770.22 2136.45h-22.13a5.65 5.65 0 1 1 0-11.29h22.13a5.65 5.65 0 1 1 0 11.29z" transform="translate(-424.98 -1864.72)"/><path class="cls-3" d="M717.64 2255.67v-15.07a17.68 17.68 0 0 1 17-17.66l15.27-.57a11.89 11.89 0 0 0 11.45-11.88v-135.58" transform="translate(-424.98 -1864.72)"/><path class="cls-6" d="M777.8 2091.28h-54.52a5.65 5.65 0 0 1 0-11.29h54.52a5.65 5.65 0 0 1 0 11.29z" transform="translate(-424.98 -1864.72)"/><path class="cls-8" d="M786.19 2057.4h-78.81a5.65 5.65 0 0 1 0-11.29h78.81a5.65 5.65 0 0 1 0 11.29zM715.06 2170.19h-78.81a5.65 5.65 0 0 1 0-11.29h78.81a5.65 5.65 0 0 1 0 11.29z" transform="translate(-424.98 -1864.72)"/><path class="cls-6" d="M778.61 2170.19h-46.42a5.65 5.65 0 0 1 0-11.29h46.42a5.65 5.65 0 0 1 0 11.29zM718.53 2147.74h-46.42a5.65 5.65 0 0 1 0-11.29h46.42a5.65 5.65 0 0 1 0 11.29z" transform="translate(-424.98 -1864.72)"/><path class="cls-8" d="M793.19 2169.77h-.27a5.65 5.65 0 1 1 0-11.29h.27a5.65 5.65 0 1 1 0 11.29z" transform="translate(-424.98 -1864.72)"/><path class="cls-9" d="M654.22 2113.87h-.27a5.65 5.65 0 1 1 0-11.29h.27a5.65 5.65 0 1 1 0 11.29zM638.83 2113.87h-.27a5.65 5.65 0 1 1 0-11.29h.27a5.65 5.65 0 1 1 0 11.29zM768.4 2192.91h-14a5.65 5.65 0 1 1 0-11.29h14a5.65 5.65 0 1 1 0 11.29z" transform="translate(-424.98 -1864.72)"/><path class="cls-10" d="M733.39 2204.2H708a5.65 5.65 0 1 1 0-11.29h25.37a5.65 5.65 0 1 1 .02 11.29z" transform="translate(-424.98 -1864.72)"/><path class="cls-8" d="M692.72 2204.2h-12.41a5.65 5.65 0 1 1 0-11.29h12.41a5.65 5.65 0 1 1 0 11.29zM665.65 2204.2h-.27a5.65 5.65 0 1 1 0-11.29h.27a5.65 5.65 0 1 1 0 11.29z" transform="translate(-424.98 -1864.72)"/><path class="cls-9" d="M633.05 2170.19H619a5.65 5.65 0 0 1 0-11.29h14a5.65 5.65 0 0 1 .05 11.29z" transform="translate(-424.98 -1864.72)"/><path class="cls-3" d="M250.27 402.97H350.7"/><path class="cls-11" d="M755.43 2005.89q0-2.26.12-4.5" transform="translate(-424.98 -1864.72)"/><path class="cls-12" d="M757.24 1988.71a81.84 81.84 0 0 1 69.12-63.88" transform="translate(-424.98 -1864.72)"/><path class="cls-11" d="M832.7 1924.24q2.23-.12 4.5-.12M911.63 2212.71q0-2.26-.12-4.5" transform="translate(-424.98 -1864.72)"/><path class="cls-12" d="M909.82 2195.53a81.84 81.84 0 0 0-69.12-63.88" transform="translate(-424.98 -1864.72)"/><path class="cls-11" d="M834.35 2131.06q-2.23-.12-4.5-.12M607.91 2164.24q-2.26 0-4.5-.12" transform="translate(-424.98 -1864.72)"/><path class="cls-13" d="M591 2162.48a81.8 81.8 0 0 1-64.83-80v-7.86" transform="translate(-424.98 -1864.72)"/><path class="cls-11" d="M101.16 203.65v-4.5"/><path class="cls-14" d="M331.83 164.45l-22.36 22.37"/><path class="cls-15" d="M280.38 277.4l-22.36 22.36"/><path class="cls-14" d="M377.12 266.22l-33.61 33.6M206.15 299.06l34.78 34.78"/><path class="cls-3" d="M143.74 458.01h-14.82"/><path class="cls-3" d="M879 1948c0-6.69-2.26-12.12-5-12.12s-5 5.42-5 12.12M885.94 1919.69c1-1.39 1.15-4.39.54-6.34a1.52 1.52 0 0 0-1.46-1.07 7 7 0 0 0-5.15 2 15 15 0 0 0-12 0 7 7 0 0 0-5.18-2.06 1.52 1.52 0 0 0-1.46 1.07c-.62 2-.49 5.08.61 6.42a10.83 10.83 0 0 0-1.36 5.25c0 7.72 6 10.84 13.43 10.84s13.43-2.88 13.43-10.84a10.84 10.84 0 0 0-1.4-5.27z" transform="translate(-424.98 -1864.72)"/><path class="cls-3" d="M425.14 35.54h47.62v47.62h-47.62z"/><path class="cls-3" d="M918.92 2273.39c0-6.69-2.26-12.12-5-12.12s-5 5.42-5 12.12M925.89 2245.1c1-1.39 1.15-4.39.54-6.34a1.52 1.52 0 0 0-1.46-1.07 7 7 0 0 0-5.15 2 15 15 0 0 0-12 0 7 7 0 0 0-5.18-2.06 1.52 1.52 0 0 0-1.46 1.07c-.62 2-.49 5.08.61 6.42a10.83 10.83 0 0 0-1.36 5.25c0 7.72 6 10.84 13.43 10.84s13.43-2.88 13.43-10.84a10.84 10.84 0 0 0-1.4-5.27z" transform="translate(-424.98 -1864.72)"/><path class="cls-3" d="M465.08 360.95h47.62v47.62h-47.62z"/><path class="cls-3" d="M531.19 2050c0-6.69-2.26-12.12-5-12.12s-5 5.42-5 12.12M538.15 2021.73c1-1.39 1.15-4.39.54-6.34a1.52 1.52 0 0 0-1.46-1.07 7 7 0 0 0-5.15 2 15 15 0 0 0-12 0 7 7 0 0 0-5.18-2.06 1.52 1.52 0 0 0-1.46 1.07c-.62 2-.49 5.08.61 6.42a10.83 10.83 0 0 0-1.36 5.25c0 7.72 6 10.84 13.43 10.84s13.43-2.88 13.43-10.84a10.84 10.84 0 0 0-1.4-5.27z" transform="translate(-424.98 -1864.72)"/><path class="cls-3" d="M77.35 137.59h47.62v47.62H77.35z"/><g id="Octicons"><g id="stop"><path id="Shape" class="cls-2" d="M454.21 2152.65l-10.6-6.94-11.69 2.44-6.94 10.6 2.44 11.69 10.6 6.94 11.69-2.44 6.94-10.6-2.44-11.69zm-10.54.68l3.53 2.31-5.78 8.84-3.53-2.31 5.78-8.84zm-6.94 10.6l3.53 2.31-2.31 3.53-3.53-2.31 2.31-3.53z" transform="translate(-424.98 -1864.72)"/></g></g><g id="Octicons-2" data-name="Octicons"><g id="x"><path id="Shape-2" data-name="Shape" class="cls-2" d="M566.9 148.5l-3.02 9.68-3.82-1.19 3.02-9.69-9.69-3.02 1.19-3.82 9.69 3.02 3.02-9.69 3.83 1.19-3.03 9.69 9.69 3.02-1.19 3.83-9.69-3.02z"/></g></g></g></g></svg>